<?xml version="1.0" standalone="no"?>
<!DOCTYPE svg PUBLIC "-//W3C//DTD SVG 20010904//EN"
 "http://www.w3.org/TR/2001/REC-SVG-20010904/DTD/svg10.dtd">
<svg version="1.0" xmlns="http://www.w3.org/2000/svg"
 width="1080.000000pt" height="1080.000000pt" viewBox="0 0 1080.000000 1080.000000"
 preserveAspectRatio="xMidYMid meet">
<metadata>
Created by potrace 1.14, written by Peter Selinger 2001-2017
</metadata>
<g transform="translate(0.000000,1080.000000) scale(0.100000,-0.100000)"
fill="#000000" stroke="none">
<path d="M5100 9344 c-101 -5 -352 -30 -430 -44 -231 -41 -241 -43 -425 -89
-165 -42 -440 -132 -569 -189 -197 -85 -394 -182 -481 -237 -22 -14 -49 -29
-60 -34 -59 -26 -338 -214 -469 -316 -204 -158 -531 -476 -670 -651 -44 -54
-96 -119 -116 -144 -152 -190 -339 -494 -455 -740 -25 -52 -50 -103 -55 -112
-58 -104 -206 -530 -258 -748 -18 -76 -29 -126 -62 -290 -11 -54 -35 -244 -50
-391 -13 -126 -12 -642 1 -749 31 -251 41 -320 49 -360 5 -25 14 -72 21 -105
15 -81 38 -182 49 -225 26 -96 43 -157 50 -175 4 -11 27 -81 51 -155 23 -74
46 -142 51 -150 4 -8 19 -44 33 -80 14 -36 30 -74 35 -85 5 -11 19 -42 31 -70
261 -598 738 -1203 1289 -1636 154 -122 281 -208 452 -309 148 -87 166 -97
313 -169 207 -101 440 -196 575 -232 19 -6 44 -14 55 -18 17 -8 103 -32 245
-71 103 -28 369 -74 590 -102 143 -18 757 -18 900 0 296 38 587 95 750 147
277 90 395 131 455 159 17 8 54 24 83 35 92 37 350 169 481 248 248 149 511
341 681 497 149 136 373 370 465 486 120 151 275 368 338 475 98 164 147 255
218 400 43 90 79 166 79 170 0 4 7 21 15 38 63 139 187 512 214 650 5 23 18
89 30 147 36 180 40 202 55 335 33 287 38 393 33 610 -5 198 -20 435 -31 492
-3 11 -7 43 -11 70 -19 139 -90 475 -114 543 -5 14 -17 52 -26 85 -26 91 -109
327 -147 415 -108 252 -287 585 -400 744 -16 23 -43 64 -62 91 -181 273 -539
652 -860 910 -118 94 -418 297 -541 365 -126 70 -285 150 -366 185 -46 20 -97
42 -114 50 -166 73 -428 160 -617 206 -138 33 -160 38 -253 54 -49 9 -99 18
-110 21 -141 32 -669 59 -935 48z m525 -94 c176 -12 344 -34 540 -69 169 -31
586 -152 710 -206 17 -7 86 -37 155 -66 296 -125 606 -304 873 -506 444 -337
853 -797 1117 -1257 10 -17 34 -60 55 -96 37 -66 165 -324 165 -335 0 -3 9
-24 20 -48 42 -91 139 -358 166 -457 89 -320 127 -528 159 -859 30 -313 10
-783 -45 -1066 -41 -211 -64 -320 -82 -380 -11 -38 -22 -79 -25 -90 -9 -34
-54 -179 -63 -200 -4 -11 -16 -42 -25 -70 -9 -27 -23 -64 -31 -82 -8 -17 -14
-34 -14 -37 0 -3 -11 -29 -24 -58 -13 -29 -35 -80 -49 -113 -23 -54 -134 -279
-157 -315 -5 -8 -28 -49 -51 -90 -134 -240 -370 -553 -589 -783 -153 -162
-413 -392 -554 -492 -16 -11 -40 -29 -55 -41 -39 -32 -336 -224 -346 -224 -2
0 -27 -14 -55 -30 -57 -33 -282 -147 -345 -175 -194 -84 -373 -151 -500 -186
-16 -4 -73 -20 -125 -34 -52 -15 -115 -31 -140 -36 -25 -5 -72 -16 -105 -24
-54 -13 -169 -31 -400 -65 -119 -17 -616 -24 -780 -11 -828 64 -1595 351
-2235 835 -326 247 -653 573 -881 882 -56 76 -203 296 -222 331 -8 16 -44 81
-80 145 -77 138 -207 405 -207 424 0 3 -7 21 -15 40 -8 19 -22 49 -30 68 -8
19 -15 37 -15 42 0 4 -15 51 -34 103 -66 185 -124 407 -156 591 -5 30 -16 96
-25 145 -9 50 -21 144 -28 210 -15 152 -15 726 0 865 19 175 69 473 93 555 5
17 19 68 31 115 95 370 302 846 500 1150 16 25 32 53 35 63 4 9 10 17 15 17 5
0 9 4 9 9 0 15 108 165 234 324 121 152 408 451 546 569 290 246 604 451 945
613 142 68 198 91 395 165 505 190 1151 280 1725 240z"/>
<path d="M6112 8828 c-5 -7 -13 -29 -17 -48 -3 -19 -29 -135 -56 -257 -27
-122 -49 -233 -49 -248 0 -29 8 -34 70 -37 43 -3 44 -2 51 32 4 19 11 55 17
80 46 206 93 426 95 449 1 8 -17 18 -48 27 -27 7 -51 13 -51 14 -1 0 -6 -6
-12 -12z"/>
<path d="M5061 8763 c-41 -4 -43 -6 -38 -31 5 -31 145 -392 157 -407 5 -6 34
-8 70 -5 l62 5 18 55 c93 283 120 369 120 379 0 8 -19 11 -62 9 -57 -3 -63 -5
-69 -28 -14 -48 -37 -135 -54 -202 -19 -71 -29 -78 -40 -25 -3 17 -10 41 -14
52 -5 11 -21 61 -37 110 -32 98 -28 96 -113 88z"/>
<path d="M5629 8724 c-61 -34 -95 -89 -109 -176 -24 -141 36 -233 173 -264 85
-20 146 -4 205 53 24 23 42 48 40 55 -3 8 -27 15 -59 19 -43 4 -59 2 -78 -13
-41 -31 -116 -20 -148 21 -7 9 -13 29 -13 45 0 25 3 28 23 22 43 -11 265 -29
282 -22 28 10 16 130 -18 189 -54 92 -198 126 -298 71z m184 -116 c35 -46 20
-55 -72 -45 -66 8 -81 13 -81 27 0 59 112 72 153 18z"/>
<path d="M4035 8703 c-154 -49 -165 -54 -165 -70 0 -8 36 -123 80 -255 44
-132 80 -245 80 -252 0 -7 6 -21 14 -31 13 -18 15 -18 87 4 184 56 221 73 267
120 21 20 43 56 50 79 43 145 -37 366 -151 421 -63 30 -131 26 -262 -16z m185
-88 c80 -41 135 -214 95 -298 -18 -39 -82 -76 -145 -84 l-35 -5 -34 104 c-19
56 -44 133 -56 170 -23 69 -20 88 15 88 9 0 20 3 24 8 6 6 76 28 99 31 4 1 21
-6 37 -14z"/>
<path d="M4678 8720 c-48 -14 -88 -50 -114 -103 -23 -45 -26 -60 -22 -127 5
-93 42 -168 97 -201 44 -26 140 -36 199 -20 70 19 142 96 142 151 0 20 -3 21
-52 15 -37 -4 -59 -13 -73 -29 -27 -31 -57 -46 -93 -46 -38 0 -82 35 -82 65 0
21 6 25 48 30 107 13 238 38 246 46 6 5 2 33 -10 71 -22 74 -81 141 -133 151
-44 9 -119 7 -153 -3z m128 -113 c40 -35 27 -53 -43 -60 -32 -4 -68 -10 -80
-13 -45 -12 -18 57 32 84 32 18 62 14 91 -11z"/>
<path d="M6392 8579 c-38 -11 -101 -71 -121 -114 -7 -17 -17 -38 -22 -47 -5
-10 -9 -48 -9 -85 0 -89 26 -136 98 -180 60 -35 146 -50 201 -34 88 27 161
136 161 243 0 61 -18 118 -48 151 -49 54 -186 89 -260 66z m137 -114 c16 -8
34 -28 41 -45 11 -27 11 -40 -4 -86 -25 -81 -54 -109 -109 -109 -36 0 -50 5
-66 24 -31 36 -35 63 -17 124 26 91 88 127 155 92z"/>
<path d="M6877 8423 c-3 -5 -43 -82 -90 -173 -46 -91 -105 -205 -131 -254 -26
-49 -45 -95 -42 -102 3 -7 24 -23 46 -34 40 -20 43 -20 61 -4 10 9 19 22 19
28 0 6 15 37 34 69 l33 59 21 -35 c28 -48 87 -77 154 -77 78 0 140 49 190 150
61 120 46 214 -42 275 -34 24 -52 29 -96 28 -40 0 -54 3 -51 12 7 17 -3 30
-40 49 -34 17 -59 21 -66 9z m160 -173 c51 -31 56 -97 13 -168 -19 -31 -73
-72 -96 -72 -24 0 -78 47 -85 74 -18 67 57 183 121 185 8 1 30 -8 47 -19z"/>
<path d="M3498 8300 c-20 -11 -40 -25 -44 -31 -7 -13 14 -118 28 -133 4 -6 8
-19 8 -30 0 -12 7 -39 15 -61 8 -22 14 -48 15 -59 0 -19 6 -24 -160 122 l-71
63 -52 -30 c-28 -16 -53 -34 -54 -38 -2 -5 38 -43 88 -83 287 -235 289 -236
289 -263 0 -14 -13 -35 -30 -51 -30 -26 -30 -27 -15 -57 9 -16 22 -32 30 -35
18 -7 90 31 109 58 21 29 20 103 0 193 -8 39 -19 90 -24 115 -5 25 -16 77 -24
115 -9 39 -21 97 -27 130 -18 107 -18 108 -81 75z"/>
<path d="M7353 8096 c-26 -35 -85 -111 -130 -169 -46 -59 -83 -111 -83 -116 0
-9 78 -71 90 -71 3 0 46 52 95 116 49 63 97 120 107 125 12 6 29 5 53 -5 30
-13 35 -19 34 -48 0 -37 -13 -57 -113 -183 l-68 -86 20 -22 c12 -12 34 -30 49
-39 l28 -16 85 108 c47 60 100 117 117 127 32 17 33 17 60 -3 49 -37 42 -58
-63 -192 l-97 -124 39 -34 c21 -18 46 -34 55 -34 9 0 36 26 60 58 25 31 68 87
97 125 59 75 72 103 72 151 0 72 -96 153 -167 142 -30 -4 -33 -3 -33 22 0 59
-82 132 -149 132 -27 0 -31 2 -22 14 10 11 3 21 -32 50 -24 20 -47 36 -50 36
-3 0 -27 -29 -54 -64z"/>
<path d="M2938 8073 c-21 -14 -38 -30 -38 -35 0 -6 14 -27 30 -48 34 -43 36
-52 15 -70 -20 -17 -19 -32 6 -64 19 -24 22 -25 42 -11 12 8 25 15 29 15 6 0
40 -42 141 -177 21 -28 52 -57 68 -63 25 -11 34 -9 71 14 87 53 98 74 54 115
-23 21 -26 22 -48 7 -23 -15 -26 -15 -50 12 -25 27 -108 136 -122 160 -5 8 0
22 14 37 l22 24 -22 30 c-25 36 -28 37 -59 14 -23 -16 -25 -15 -52 18 -16 19
-29 37 -29 42 0 15 -36 5 -72 -20z"/>
<path d="M2691 7920 l-44 -41 33 -34 c19 -19 38 -35 43 -35 5 0 27 14 48 31
33 26 37 33 28 51 -13 24 -50 68 -58 68 -3 0 -26 -18 -50 -40z"/>
<path d="M2795 7800 l-39 -40 25 -27 c13 -15 29 -32 35 -39 6 -7 59 -67 119
-133 60 -67 112 -121 117 -121 5 0 25 12 44 28 32 25 46 65 26 74 -5 2 -68 69
-141 151 -73 81 -136 147 -140 147 -4 0 -24 -18 -46 -40z"/>
<path d="M2594 7606 c-62 -27 -114 -99 -114 -157 0 -18 -2 -20 -15 -9 -13 11
-21 8 -50 -20 -19 -19 -35 -41 -35 -51 0 -9 60 -69 133 -134 72 -65 145 -130
160 -144 l28 -26 41 44 41 44 -54 51 c-30 28 -72 67 -94 86 -50 43 -85 92 -85
118 0 27 48 72 76 72 22 0 74 -40 194 -149 30 -28 60 -51 66 -51 15 0 74 64
74 81 0 9 -12 26 -27 39 -16 13 -69 61 -119 107 -83 76 -143 114 -176 113 -7
-1 -27 -7 -44 -14z"/>
<path d="M7879 7548 c-35 -24 -77 -63 -94 -86 -27 -39 -30 -52 -29 -115 0 -59
5 -79 26 -112 42 -65 100 -109 160 -120 37 -7 118 10 118 25 0 4 -16 27 -37
49 -27 30 -44 41 -65 41 -40 0 -65 15 -83 50 -20 39 -19 73 3 100 l18 23 83
-92 c45 -51 90 -101 99 -112 9 -10 22 -19 30 -19 19 0 69 54 92 100 69 136
-45 310 -204 310 -47 0 -62 -5 -117 -42z m174 -79 c30 -17 56 -51 57 -74 0
-55 -28 -85 -47 -51 -4 8 -27 35 -50 60 -24 24 -43 49 -43 55 0 21 50 27 83
10z"/>
<path d="M8185 7124 c-93 -63 -171 -119 -173 -124 -6 -17 58 -101 71 -93 7 3
61 39 120 80 127 86 159 92 201 42 14 -17 26 -36 26 -43 0 -26 -35 -58 -144
-130 -63 -41 -117 -79 -120 -84 -8 -13 56 -104 69 -98 7 2 74 45 149 95 110
74 140 99 157 133 19 37 20 45 8 86 -15 56 -52 100 -101 122 -33 15 -36 19
-24 30 14 11 14 15 1 40 -18 35 -43 60 -58 59 -7 0 -88 -52 -182 -115z"/>
<path d="M2238 7180 c-15 -22 -25 -45 -23 -52 3 -7 47 -40 97 -73 136 -89 148
-100 148 -144 0 -51 -23 -81 -63 -81 -22 0 -65 23 -154 81 -135 89 -132 89
-171 21 l-22 -40 48 -35 c100 -71 228 -148 265 -158 52 -14 99 3 137 49 34 41
54 102 45 133 -6 17 -3 19 17 14 20 -5 29 0 51 34 15 22 27 45 27 50 0 5 -17
20 -37 32 -21 13 -42 27 -48 32 -30 25 -269 177 -279 177 -6 -1 -23 -18 -38
-40z"/>
<path d="M8594 6796 c-12 -9 -19 -26 -19 -46 0 -30 -5 -34 -123 -95 -68 -35
-130 -71 -137 -81 -21 -28 -18 -57 11 -119 28 -58 41 -65 89 -43 26 12 28 23
9 71 -4 11 25 30 108 71 102 51 114 54 125 40 7 -9 14 -22 16 -27 2 -8 14 -8
38 -1 36 10 51 43 30 67 -13 17 -3 29 42 49 49 23 53 37 27 87 -23 47 -38 50
-95 21 l-40 -21 -14 21 c-16 24 -39 26 -67 6z"/>
<path d="M1933 6666 c-53 -45 -73 -122 -48 -187 4 -12 -3 -20 -25 -29 -59 -24
-103 -124 -81 -181 9 -24 7 -26 -10 -22 -15 4 -23 -4 -39 -41 -20 -48 -18 -76
6 -76 7 0 37 -11 66 -24 106 -48 298 -126 311 -126 16 0 53 99 41 109 -9 7
-44 22 -184 82 -41 17 -83 38 -92 47 -25 21 -22 55 7 86 30 32 22 34 198 -40
71 -30 130 -54 132 -54 9 0 45 95 41 106 -2 6 -40 26 -83 44 -125 52 -187 82
-200 99 -29 37 -1 101 43 101 14 0 44 -9 67 -19 79 -35 217 -91 227 -91 12 0
53 87 48 102 -2 6 -67 38 -143 71 -173 74 -234 83 -282 43z"/>
<path d="M4564 6660 c-26 -10 -48 -41 -104 -145 -62 -117 -132 -217 -206 -295
-65 -68 -84 -82 -242 -176 -68 -40 -95 -63 -148 -131 -90 -114 -122 -139 -189
-153 -79 -16 -118 -58 -191 -206 -69 -138 -116 -191 -244 -273 -81 -51 -153
-99 -225 -148 -42 -28 -98 -97 -120 -148 -69 -157 -96 -186 -178 -190 l-51 -3
-145 -150 c-81 -83 -181 -176 -223 -208 -43 -31 -78 -62 -78 -68 1 -10 22 -91
70 -256 108 -376 295 -753 521 -1047 242 -315 557 -604 861 -788 144 -87 270
-153 393 -205 55 -23 114 -48 130 -56 l30 -14 -39 0 c-60 0 -122 -35 -150 -83
-13 -23 -42 -96 -65 -162 -23 -66 -56 -158 -73 -204 -34 -93 -33 -97 36 -120
35 -12 41 -12 51 2 10 14 14 13 34 -14 24 -33 97 -69 138 -69 59 0 183 103
183 153 0 9 4 18 9 22 16 9 24 109 12 153 -24 86 -106 141 -196 129 -55 -8
-59 6 -16 52 21 23 38 31 63 31 38 0 76 -23 87 -52 7 -20 106 -62 122 -52 17
10 9 71 -14 105 -12 19 -38 42 -57 51 -49 25 -12 23 65 -3 33 -11 98 -29 145
-39 47 -11 103 -25 125 -30 65 -15 142 -29 265 -46 136 -19 628 -23 725 -6 33
6 91 14 128 18 l68 6 -23 -25 c-26 -28 -39 -73 -63 -222 -9 -55 -18 -111 -21
-125 -45 -232 -52 -290 -35 -290 5 0 32 5 58 11 l50 12 11 86 c7 47 14 114 18
149 3 34 9 62 13 62 4 0 36 -60 72 -132 l64 -133 40 2 c56 3 85 12 85 24 0 9
-121 240 -201 386 -30 53 -20 91 28 107 44 15 46 19 33 66 -13 50 -9 54 54 64
22 4 55 11 71 16 17 5 57 16 90 26 126 35 298 97 413 150 41 19 75 34 77 34 1
0 65 34 141 76 661 362 1168 935 1436 1625 81 207 113 315 112 376 -2 73 -47
164 -116 233 -53 53 -147 110 -181 110 -9 0 -19 5 -22 10 -3 6 -33 10 -65 10
-54 0 -62 3 -92 33 -18 18 -45 57 -60 87 -29 59 -74 111 -116 133 -15 8 -59
31 -98 51 -39 20 -90 55 -113 78 -38 36 -151 196 -151 212 0 4 -18 31 -40 61
-39 53 -114 116 -175 147 -49 26 -123 97 -166 159 -21 32 -39 61 -39 64 0 3
-25 44 -56 91 -80 121 -173 184 -274 184 -44 0 -58 -7 -138 -62 -50 -35 -134
-96 -188 -137 -126 -96 -155 -111 -224 -111 -45 0 -72 -8 -138 -40 -44 -22
-95 -40 -111 -40 -58 0 -125 61 -176 160 -55 107 -135 167 -206 156 -46 -7
-79 4 -114 41 -34 36 -58 84 -75 148 -33 125 -72 171 -238 278 -115 75 -144
107 -189 207 -63 142 -86 172 -148 201 -43 20 -87 23 -121 9z m1383 -4806 c-3
-3 -12 -4 -19 -1 -8 3 -5 6 6 6 11 1 17 -2 13 -5z m-1732 -169 c29 -28 32 -62
9 -127 -25 -74 -71 -100 -130 -72 -43 21 -57 61 -43 120 24 95 108 135 164 79z"/>
<path d="M8915 6174 c-16 -8 -42 -26 -56 -40 l-26 -25 -26 21 c-94 74 -206 62
-267 -27 -20 -30 -25 -49 -25 -102 0 -78 20 -126 70 -170 34 -29 45 -51 26
-51 -20 0 -22 -42 -4 -100 9 -33 21 -60 25 -60 5 0 23 21 41 46 17 26 37 53
43 62 10 14 19 15 78 3 36 -7 77 -10 91 -7 28 7 30 21 15 78 -10 35 -12 37
-52 35 -22 -1 -42 3 -44 8 -2 6 11 28 29 49 l33 39 33 -24 c42 -31 134 -32
174 -3 110 80 46 284 -88 284 -22 0 -53 -7 -70 -16z m111 -119 c13 -20 14 -28
4 -40 -18 -21 -44 -27 -74 -16 -32 13 -33 27 -4 58 28 30 53 29 74 -2z m-285
-12 c16 -10 29 -21 29 -26 0 -11 -82 -127 -90 -127 -16 0 -51 51 -56 81 -4 26
0 41 16 62 25 32 58 35 101 10z"/>
<path d="M1753 5951 c-99 -25 -153 -109 -153 -236 0 -51 5 -69 28 -104 52 -78
134 -116 236 -109 68 4 130 31 158 69 25 33 58 127 58 165 0 117 -96 208 -230
218 -36 3 -80 1 -97 -3z m176 -159 c48 -39 54 -85 16 -131 -24 -28 -32 -31
-83 -31 -66 1 -116 23 -146 63 -19 26 -19 30 -6 69 19 55 48 70 124 64 45 -3
66 -11 95 -34z"/>
<path d="M1540 5413 c-102 -34 -150 -95 -168 -212 -23 -155 68 -274 230 -301
115 -20 246 2 302 49 40 34 75 99 85 157 22 130 -22 224 -131 280 -69 35 -75
33 -83 -33 -6 -52 -5 -59 15 -73 74 -52 85 -67 84 -117 -1 -91 -60 -138 -174
-137 -85 0 -138 16 -181 54 -30 27 -34 37 -34 79 0 63 20 97 67 118 30 13 38
22 38 42 0 14 3 43 6 64 6 34 5 37 -17 36 -13 0 -31 -3 -39 -6z"/>
<path d="M8780 5323 c-47 -24 -63 -40 -91 -93 -19 -38 -23 -60 -23 -140 1
-108 14 -147 66 -198 57 -54 139 -67 207 -33 57 29 67 50 102 211 24 105 32
127 49 138 25 16 64 -1 79 -35 14 -30 14 -108 1 -134 -6 -10 -24 -26 -40 -34
-28 -14 -30 -20 -30 -71 0 -63 10 -72 66 -54 75 25 134 125 134 228 0 52 -33
142 -65 176 -63 68 -178 74 -243 13 -34 -32 -49 -70 -71 -185 -26 -130 -32
-142 -76 -142 -48 0 -66 31 -67 112 -2 72 11 101 50 120 25 12 27 18 27 73 0
53 -3 60 -20 62 -11 2 -36 -5 -55 -14z"/>
<path d="M8714 4731 c-18 -11 -39 -34 -48 -52 -20 -40 -20 -127 -1 -153 16
-21 21 -51 7 -42 -18 11 -31 -12 -33 -57 -2 -25 0 -49 2 -52 3 -2 61 -12 130
-20 68 -8 161 -20 207 -27 50 -7 86 -8 91 -2 14 15 20 103 7 112 -6 5 -65 15
-131 22 -131 14 -162 22 -181 48 -21 27 -17 79 7 103 19 19 28 21 78 15 31 -4
93 -11 138 -16 45 -4 86 -11 90 -13 20 -12 34 13 40 66 5 45 3 57 -8 57 -8 0
-59 7 -114 15 -145 21 -243 19 -281 -4z"/>
<path d="M1900 4600 c-25 -5 -73 -13 -107 -18 -145 -24 -172 -32 -198 -63 -32
-39 -39 -67 -30 -134 5 -42 13 -61 36 -82 33 -32 36 -43 13 -43 -14 0 -16 -9
-12 -51 3 -27 9 -54 14 -59 5 -4 83 5 174 21 91 15 179 28 195 29 17 0 40 7
51 15 19 12 20 20 13 57 -4 24 -8 47 -9 51 0 9 -37 7 -185 -14 -112 -15 -158
-8 -173 27 -17 35 -15 58 6 81 17 20 30 24 152 43 36 6 89 15 118 21 l54 11
-7 45 c-12 80 -10 79 -105 63z"/>
<path d="M8633 4231 c-43 -31 -76 -90 -93 -168 -20 -86 8 -161 72 -194 92 -47
145 -12 234 156 39 72 89 53 65 -25 -8 -28 -20 -42 -45 -54 -36 -17 -40 -24
-51 -88 l-6 -38 38 0 c79 0 142 69 164 179 20 106 -17 180 -102 202 -42 11
-50 10 -80 -9 -22 -13 -52 -51 -84 -104 -57 -96 -72 -113 -92 -97 -35 30 6
137 57 149 18 4 27 16 37 50 7 25 11 51 8 58 -9 23 -79 14 -122 -17z"/>
<path d="M1860 4073 c-120 -42 -176 -118 -168 -227 6 -67 26 -115 67 -159 37
-40 83 -57 157 -57 154 0 266 108 251 241 -20 171 -151 257 -307 202z m142
-117 c37 -16 58 -50 58 -94 0 -56 -55 -98 -142 -109 -56 -7 -88 10 -112 58
-13 26 -14 36 -2 62 16 40 33 54 93 77 60 23 63 23 105 6z"/>
<path d="M8476 3779 c-15 -9 -76 -124 -76 -144 0 -7 64 -35 78 -35 5 0 14 11
20 25 14 29 35 31 88 8 22 -9 66 -26 99 -38 l60 -21 -3 -41 c-2 -35 1 -42 20
-47 46 -12 66 -7 70 17 4 25 32 26 81 2 37 -18 44 -14 68 42 23 53 17 64 -41
83 -36 12 -40 16 -40 47 0 28 -5 35 -32 47 -35 14 -58 6 -58 -20 0 -23 -40
-14 -145 31 -63 28 -141 55 -155 55 -8 0 -23 -5 -34 -11z"/>
<path d="M2220 3629 c-21 -12 -190 -89 -196 -89 -2 0 -43 -18 -89 -40 -52 -25
-85 -46 -85 -55 0 -23 39 -95 51 -95 6 0 36 12 67 26 31 15 115 53 186 85 71
31 132 61 137 66 10 10 -29 100 -45 106 -6 2 -18 0 -26 -4z"/>
<path d="M8390 3549 c-61 -25 -93 -80 -92 -159 1 -52 -1 -56 -21 -56 -16 1
-29 -12 -49 -49 -14 -27 -25 -52 -23 -56 3 -3 19 -9 37 -12 18 -3 83 -32 143
-65 139 -74 162 -82 200 -69 90 29 170 175 145 266 -10 39 -62 97 -77 88 -5
-3 -20 -26 -32 -50 -21 -41 -22 -47 -8 -68 19 -29 13 -69 -14 -98 -23 -25 -42
-27 -59 -6 -11 13 -8 31 15 101 31 96 30 135 -6 184 -16 20 -39 35 -73 45 -57
17 -53 17 -86 4z m76 -144 c16 -24 15 -30 -8 -108 -11 -37 -11 -37 -37 -21
-38 24 -51 44 -51 79 0 67 63 101 96 50z"/>
<path d="M2290 3454 c-20 -11 -25 -21 -25 -54 0 -40 -2 -42 -55 -71 -30 -17
-74 -42 -97 -55 -52 -30 -67 -30 -81 0 -12 26 -31 26 -67 0 -17 -12 -18 -18
-8 -45 11 -29 11 -30 -38 -57 -27 -15 -49 -31 -49 -37 0 -5 10 -29 22 -52 26
-48 48 -54 88 -23 32 25 48 25 69 -1 17 -21 18 -21 50 -4 22 11 31 22 28 33
-2 9 -6 23 -8 31 -3 9 39 37 121 82 153 83 172 106 146 174 -18 45 -52 96 -64
94 -4 -1 -18 -7 -32 -15z"/>
<path d="M1753 3418 c-24 -11 -43 -25 -43 -32 0 -25 36 -96 49 -96 8 0 30 5
48 12 40 14 43 39 13 98 -11 22 -21 40 -23 40 -1 -1 -21 -10 -44 -22z"/>
<path d="M2437 3196 c-9 -13 -57 -52 -108 -87 -125 -87 -167 -125 -174 -159
-11 -50 20 -132 71 -189 56 -62 104 -80 164 -62 46 14 50 28 19 77 -16 26 -27
34 -50 34 -41 0 -66 15 -85 51 -14 28 -14 32 1 49 22 25 50 15 88 -31 89 -108
194 -122 269 -36 50 56 26 157 -49 206 -26 17 -52 31 -60 31 -10 0 -11 4 -1
19 10 16 7 26 -16 60 -42 61 -51 65 -69 37z m81 -199 c39 -36 20 -96 -31 -97
-22 0 -109 79 -101 92 11 17 68 37 89 31 11 -3 30 -15 43 -26z"/>
<path d="M8125 3125 c-15 -19 -25 -42 -23 -51 3 -19 347 -256 360 -248 4 3 21
25 38 49 l30 44 -22 16 c-76 54 -340 225 -348 225 -5 0 -21 -16 -35 -35z"/>
<path d="M7988 2936 c-16 -19 -28 -41 -28 -48 0 -7 37 -42 81 -78 110 -87 125
-101 138 -127 16 -32 14 -57 -10 -87 -35 -45 -63 -36 -183 62 -60 48 -115 91
-122 97 -10 7 -23 -2 -48 -30 -19 -22 -35 -45 -36 -52 0 -16 240 -213 281
-230 41 -17 63 -16 102 4 61 31 118 120 103 160 -5 12 -1 14 17 9 19 -4 30 2
55 34 18 21 32 42 32 47 -1 13 -319 268 -338 271 -10 1 -29 -12 -44 -32z"/>
<path d="M8532 2854 c-18 -24 -32 -49 -32 -54 0 -11 74 -60 89 -60 9 0 61 79
61 93 0 3 -20 19 -43 36 l-44 30 -31 -45z"/>
<path d="M2691 2815 c-17 -15 -31 -32 -31 -38 0 -7 29 -43 65 -82 35 -38 64
-74 65 -78 0 -5 -15 -8 -32 -7 -18 1 -88 2 -155 1 -122 -1 -122 -1 -158 -32
-33 -29 -44 -53 -27 -61 4 -1 27 -25 51 -53 88 -99 171 -185 179 -185 5 0 23
14 40 31 36 36 39 30 -40 114 -26 27 -48 53 -48 56 0 8 142 19 240 19 67 0 78
3 108 28 17 15 32 30 32 34 0 8 -239 272 -249 276 -5 2 -23 -9 -40 -23z"/>
<path d="M7644 2560 c-33 -13 -82 -77 -90 -115 -5 -31 -9 -34 -31 -29 -19 5
-33 -1 -64 -32 -44 -43 -47 -50 -19 -59 10 -3 65 -56 121 -118 56 -62 111
-117 123 -124 90 -52 265 73 268 190 1 51 -18 107 -36 107 -6 0 -28 -15 -49
-34 -34 -30 -38 -37 -32 -68 6 -31 3 -38 -26 -62 -39 -33 -73 -31 -77 4 -2 18
10 39 42 75 84 93 90 171 17 242 -29 28 -41 33 -80 32 -25 0 -55 -4 -67 -9z
m66 -120 c11 -11 20 -27 20 -36 0 -12 -43 -86 -67 -114 -3 -3 -16 8 -29 23
-33 39 -31 81 5 118 35 34 44 36 71 9z"/>
<path d="M2937 2423 c-47 -54 -111 -125 -142 -158 -30 -33 -54 -66 -52 -74 1
-8 18 -27 38 -43 43 -35 52 -32 113 41 21 25 66 75 100 111 34 36 76 82 94
104 l34 39 -38 38 c-21 22 -43 39 -49 39 -7 0 -51 -44 -98 -97z"/>
<path d="M3164 2323 c-15 -21 -44 -60 -64 -88 -121 -165 -131 -191 -101 -256
28 -59 72 -91 133 -97 43 -4 47 -7 42 -26 -4 -17 4 -27 37 -49 23 -15 47 -26
54 -23 12 4 242 316 251 341 5 12 -67 75 -86 75 -4 0 -42 -47 -84 -104 -87
-117 -101 -132 -137 -141 -19 -5 -34 0 -57 20 -39 33 -40 60 -6 106 87 116
144 200 144 212 0 17 -62 67 -84 67 -8 0 -27 -17 -42 -37z"/>
<path d="M7308 2263 c-21 -14 -38 -34 -38 -44 0 -14 -7 -19 -30 -19 -61 0
-125 -41 -155 -100 -13 -25 -16 -49 -12 -94 13 -156 160 -292 277 -257 52 15
99 56 120 104 l18 40 17 -33 c9 -18 33 -54 52 -81 l35 -49 40 22 c22 13 44 30
48 38 6 12 -34 80 -151 256 -88 131 -165 240 -172 241 -7 1 -29 -10 -49 -24z
m45 -182 c35 -32 67 -92 67 -124 0 -30 -40 -74 -76 -83 -38 -10 -84 18 -118
69 -50 78 -46 129 14 159 41 21 75 15 113 -21z"/>
<path d="M2667 2122 c-15 -15 -27 -35 -27 -43 0 -16 62 -69 82 -69 7 0 26 16
41 35 l28 35 -36 35 c-19 19 -41 35 -48 35 -7 0 -25 -13 -40 -28z"/>
<path d="M3580 2069 c0 -12 -31 -84 -70 -160 -98 -193 -95 -228 28 -306 75
-48 156 -57 207 -22 34 23 51 51 41 66 -2 5 -20 17 -40 27 -32 17 -40 18 -75
6 -35 -11 -43 -11 -73 7 -23 13 -33 26 -33 44 0 31 28 36 92 13 26 -9 64 -20
83 -25 74 -18 145 26 170 104 15 47 8 76 -27 118 -33 39 -79 59 -137 59 -34 0
-45 4 -48 18 -5 17 -88 72 -109 72 -5 0 -9 -9 -9 -21z m187 -163 c24 -21 26
-27 18 -52 -7 -20 -19 -30 -35 -33 -32 -4 -130 18 -130 29 0 5 14 25 31 45 38
42 75 46 116 11z"/>
<path d="M6875 1997 c-22 -12 -40 -29 -40 -37 0 -20 188 -380 198 -380 12 0
80 32 93 44 10 10 -1 34 -139 299 -28 53 -56 97 -61 97 -6 0 -29 -11 -51 -23z"/>
<path d="M6670 1896 c-52 -27 -53 -36 -16 -118 13 -29 38 -82 54 -118 16 -36
42 -95 57 -130 15 -36 42 -97 61 -137 l33 -72 51 21 c46 19 51 24 47 47 -3 14
-48 125 -102 246 -53 121 -103 235 -111 253 -8 17 -18 32 -22 32 -4 0 -27 -11
-52 -24z"/>
<path d="M6453 1812 c-49 -19 -51 -26 -23 -102 12 -30 34 -95 51 -145 16 -49
33 -99 38 -110 5 -11 15 -35 21 -53 7 -18 18 -31 24 -28 6 3 28 10 50 17 59
20 60 7 -19 224 -20 55 -42 119 -50 143 -13 43 -32 73 -44 71 -3 0 -25 -8 -48
-17z"/>
<path d="M6150 1728 c-50 -14 -55 -22 -41 -68 12 -39 13 -40 45 -35 32 7 33 6
49 -47 22 -72 47 -169 47 -185 0 -7 -9 -13 -20 -13 -30 0 -41 -30 -24 -68 13
-31 16 -33 49 -26 28 5 35 3 35 -10 0 -9 6 -35 13 -57 10 -33 16 -39 32 -35
11 3 36 9 55 13 38 10 40 18 25 96 -7 34 -5 39 14 44 19 5 22 12 19 47 -3 39
-4 41 -37 41 -37 0 -34 -6 -65 108 -9 31 -23 83 -32 115 -9 31 -25 65 -36 75
-22 19 -72 21 -128 5z"/>
<path d="M4609 1692 c-10 -2 -20 -23 -29 -60 -45 -200 -57 -229 -105 -238 -17
-3 -44 -4 -60 -2 -27 3 -30 0 -43 -45 -10 -38 -11 -51 -2 -63 17 -20 69 -17
108 6 18 11 34 20 35 20 2 0 3 -12 2 -27 0 -25 4 -28 48 -36 26 -5 50 -7 53
-4 4 4 27 97 53 217 5 25 17 77 26 117 9 40 15 78 13 84 -5 14 -75 36 -99 31z"/>
<path d="M4980 1636 c-91 -26 -145 -70 -178 -146 -8 -19 -19 -45 -25 -57 -5
-12 -10 -66 -10 -120 1 -108 18 -161 70 -219 59 -66 187 -104 280 -84 144 33
223 147 223 325 0 136 -49 230 -145 278 -24 12 -150 39 -166 36 -2 0 -24 -6
-49 -13z m171 -142 c90 -87 72 -295 -30 -352 -76 -43 -160 -18 -198 58 -52
101 -16 268 67 312 49 27 123 18 161 -18z"/>
<path d="M7098 1559 c-42 -21 -45 -32 -22 -78 21 -43 34 -46 83 -21 46 23 49
33 24 85 -19 39 -31 41 -85 14z"/>
<path d="M6625 1351 c-54 -19 -58 -30 -33 -94 9 -24 16 -28 37 -24 47 10 81
26 81 39 0 21 -20 87 -28 92 -4 2 -30 -4 -57 -13z"/>
<path d="M2698 33 c1486 -2 3918 -2 5405 0 1486 1 270 2 -2703 2 -2973 0
-4189 -1 -2702 -2z"/>
</g>
</svg>
