<?xml version="1.0" standalone="no"?>
<!DOCTYPE svg PUBLIC "-//W3C//DTD SVG 20010904//EN"
 "http://www.w3.org/TR/2001/REC-SVG-20010904/DTD/svg10.dtd">
<svg version="1.0" xmlns="http://www.w3.org/2000/svg"
 width="1309.000000pt" height="1309.000000pt" viewBox="0 0 1309.000000 1309.000000"
 preserveAspectRatio="xMidYMid meet">
<metadata>
Created by potrace 1.14, written by Peter Selinger 2001-2017
</metadata>
<g transform="translate(0.000000,1309.000000) scale(0.100000,-0.100000)"
fill="#000000" stroke="none">
<path d="M6290 12724 c-1144 -44 -2181 -361 -3120 -952 -672 -423 -1283 -1001
-1747 -1652 -930 -1307 -1312 -2895 -1082 -4505 148 -1041 589 -2065 1252
-2913 277 -355 653 -734 1010 -1019 904 -724 2013 -1188 3147 -1317 356 -40
837 -52 1160 -27 1280 96 2452 555 3437 1344 330 263 691 622 949 942 948
1175 1437 2650 1374 4138 -39 916 -249 1735 -649 2535 -236 471 -550 939 -884
1317 -113 127 -401 417 -532 535 -916 822 -2073 1355 -3300 1520 -287 39 -758
64 -1015 54z m595 -104 c1130 -79 2178 -449 3098 -1094 303 -212 523 -400 822
-700 239 -239 373 -392 551 -629 712 -943 1129 -2062 1214 -3249 13 -186 13
-661 0 -838 -80 -1086 -415 -2076 -1003 -2960 -248 -373 -498 -673 -838 -1005
-1031 -1008 -2379 -1611 -3831 -1715 -189 -13 -657 -13 -846 0 -724 52 -1401
221 -2067 516 -1331 591 -2439 1682 -3051 3006 -293 632 -461 1249 -541 1983
-25 230 -25 950 0 1180 115 1049 440 1961 998 2796 389 583 895 1113 1459
1531 927 685 2036 1094 3190 1177 166 12 681 12 845 1z"/>
<path d="M5601 12009 c-80 -11 -147 -21 -149 -23 -3 -4 84 -729 93 -772 l4
-20 193 23 c171 21 200 27 258 56 78 39 121 92 150 183 37 121 22 301 -34 413
-31 60 -111 133 -164 149 -55 17 -181 13 -351 -9z m312 -138 c84 -49 126 -296
69 -408 -33 -64 -69 -83 -184 -100 -55 -8 -102 -12 -106 -9 -5 6 -55 381 -64
481 l-3 40 90 11 c102 13 157 9 198 -15z"/>
<path d="M6475 11865 c-96 -36 -157 -121 -175 -243 -16 -117 10 -220 70 -280
122 -118 359 -112 453 12 15 19 31 46 37 60 l10 26 -80 0 c-67 0 -81 -3 -89
-19 -13 -23 -70 -51 -107 -51 -41 0 -107 36 -125 67 -9 16 -19 43 -23 62 l-6
34 220 -5 220 -5 0 48 c0 127 -48 221 -140 272 -46 27 -65 31 -139 34 -58 2
-99 -2 -126 -12z m168 -119 c40 -17 65 -44 77 -85 l9 -31 -140 0 c-94 0 -139
4 -139 11 0 23 32 78 54 92 43 28 92 33 139 13z"/>
<path d="M7004 11814 c3 -16 28 -148 56 -294 28 -146 54 -272 59 -280 5 -9 37
-19 82 -26 41 -6 75 -11 75 -10 7 6 294 539 294 545 0 7 -151 35 -155 29 -1
-2 -44 -95 -96 -207 -75 -163 -94 -199 -100 -180 -3 13 -16 115 -29 226 l-23
201 -31 6 c-17 3 -55 8 -85 12 l-53 7 6 -29z"/>
<path d="M8461 11677 c-11 -29 -281 -699 -287 -713 -6 -12 127 -67 137 -56 8
8 287 698 291 719 2 9 -21 25 -65 43 l-68 29 -8 -22z"/>
<path d="M7794 11664 c-123 -45 -217 -218 -201 -370 6 -63 23 -97 73 -148 57
-59 133 -90 229 -94 72 -3 85 -1 134 25 51 26 101 76 89 88 -3 3 -36 14 -73
25 -67 19 -68 19 -93 0 -51 -40 -156 -16 -193 44 -24 39 -27 126 -4 126 8 0
101 -25 206 -56 213 -62 201 -63 219 19 20 97 3 185 -50 249 -68 83 -237 129
-336 92z m171 -128 c41 -18 75 -69 75 -113 0 -36 -8 -39 -56 -23 -16 5 -68 21
-116 35 -49 14 -88 31 -88 37 0 5 15 25 34 44 28 28 42 34 75 34 23 0 57 -6
76 -14z"/>
<path d="M4866 11624 c-38 -13 -71 -26 -73 -28 -4 -4 11 -255 23 -385 4 -42 2
-61 -5 -57 -5 4 -67 85 -137 182 -70 96 -132 173 -138 171 -6 -2 -41 -14 -79
-26 -45 -15 -65 -27 -60 -34 4 -7 96 -123 205 -258 184 -228 198 -249 198
-286 0 -44 -15 -63 -67 -85 l-31 -13 20 -53 c19 -50 22 -53 47 -47 51 12 132
57 149 83 15 23 17 65 20 367 2 187 2 374 0 416 l-3 76 -69 -23z"/>
<path d="M4065 11488 c-33 -17 -62 -32 -64 -34 -2 -2 10 -36 28 -75 18 -39 31
-73 29 -74 -2 -1 -17 -10 -35 -19 l-32 -16 21 -50 20 -49 39 20 39 19 24 -52
c75 -167 148 -310 165 -327 32 -32 99 -28 177 10 35 18 64 33 64 35 0 2 -10
24 -22 49 -19 38 -26 45 -43 40 -75 -25 -68 -32 -150 140 -41 87 -75 161 -75
165 0 4 18 15 40 25 22 10 40 19 40 21 0 2 -10 23 -22 48 l-21 44 -44 -19 -44
-19 -36 75 c-19 41 -36 75 -37 75 0 -1 -28 -15 -61 -32z"/>
<path d="M3687 11344 l-57 -35 27 -47 c14 -26 30 -51 34 -56 8 -8 98 32 123
55 11 9 -44 119 -59 118 -5 0 -36 -16 -68 -35z"/>
<path d="M8731 11284 c-164 -71 -258 -303 -182 -451 39 -77 137 -143 243 -164
119 -24 243 52 310 189 30 60 33 76 33 152 0 68 -5 93 -22 126 -49 92 -174
164 -283 164 -36 -1 -80 -7 -99 -16z m186 -131 c83 -39 96 -142 32 -248 -58
-98 -130 -128 -208 -87 -82 41 -97 122 -43 227 58 114 131 150 219 108z"/>
<path d="M3802 11164 c-34 -19 -62 -38 -62 -42 0 -4 65 -120 143 -259 l143
-252 63 36 c47 26 61 39 56 51 -5 13 -271 488 -279 499 -1 1 -30 -14 -64 -33z"/>
<path d="M9162 10661 l-241 -330 54 -40 c30 -23 58 -41 62 -41 5 0 46 52 93
115 46 63 87 115 92 115 4 0 8 -14 8 -30 0 -42 21 -80 69 -123 67 -60 168 -73
256 -31 92 43 205 197 220 299 22 144 -113 286 -246 258 -27 -5 -49 -8 -49 -5
0 2 9 15 20 29 11 14 20 29 20 32 0 9 -97 81 -109 81 -5 0 -117 -148 -249
-329z m385 88 c75 -36 92 -104 49 -194 -41 -87 -135 -155 -195 -140 -45 11
-90 53 -102 95 -10 33 -9 47 5 84 25 65 79 130 128 155 53 26 61 26 115 0z"/>
<path d="M3436 10945 c-84 -30 -146 -105 -146 -180 l-1 -40 -29 34 -28 33 -56
-38 c-30 -22 -54 -44 -52 -50 5 -14 303 -433 325 -456 15 -17 20 -15 74 23 31
22 57 42 57 45 0 2 -45 67 -100 144 -102 142 -130 191 -130 232 0 37 34 83 76
103 37 17 39 17 73 -1 32 -17 64 -58 256 -328 13 -17 17 -16 74 24 34 24 61
45 61 47 0 10 -226 321 -259 357 -60 64 -117 79 -195 51z"/>
<path d="M2866 10501 l-49 -50 124 -129 c155 -159 177 -199 144 -262 -22 -42
-63 -70 -104 -70 -33 0 -46 10 -183 152 l-147 153 -50 -50 c-28 -27 -51 -53
-51 -58 0 -18 305 -319 342 -338 55 -28 115 -25 169 9 77 50 109 105 109 189
l0 47 28 -27 c15 -15 33 -27 38 -27 5 0 30 20 54 45 l43 44 -199 207 c-110
114 -205 209 -210 211 -5 2 -32 -19 -58 -46z"/>
<path d="M9825 10315 l-209 -203 49 -54 50 -55 143 136 c150 143 173 160 209
161 26 0 81 -45 94 -77 16 -41 -9 -75 -159 -220 l-147 -142 52 -52 52 -53 140
132 c76 73 154 138 173 146 48 19 91 3 123 -46 31 -49 15 -72 -148 -230 l-152
-147 50 -51 c27 -27 53 -50 58 -50 15 0 299 279 330 323 55 81 28 184 -66 252
-35 25 -52 30 -98 30 l-56 0 5 42 c6 59 -3 88 -45 134 -48 53 -81 69 -144 69
l-53 0 29 30 29 31 -49 48 -50 49 -210 -203z"/>
<path d="M2330 9939 c-85 -34 -144 -159 -116 -246 7 -21 4 -23 -34 -23 -54 0
-94 -22 -130 -72 -39 -53 -52 -102 -40 -153 5 -22 8 -41 6 -42 -2 -2 -14 6
-29 17 -14 11 -30 20 -35 20 -14 0 -84 -99 -77 -110 8 -14 454 -340 465 -340
5 0 27 25 49 56 l40 56 -149 109 c-148 109 -200 157 -200 185 0 32 40 92 69
103 49 21 52 19 282 -151 l116 -86 37 49 c20 27 39 55 42 62 3 8 -59 59 -152
127 -195 144 -218 181 -153 255 54 61 71 55 323 -133 l110 -81 44 61 c24 33
40 64 35 68 -29 27 -331 244 -361 260 -39 21 -101 25 -142 9z"/>
<path d="M10603 9626 c-86 -28 -189 -110 -226 -181 -35 -65 -30 -164 11 -248
38 -77 111 -147 170 -165 41 -13 144 -16 155 -6 3 3 -13 35 -36 70 -37 56 -46
64 -74 64 -19 0 -44 10 -64 27 -73 62 -78 165 -11 226 23 21 18 27 188 -225
91 -134 82 -132 175 -39 91 91 111 191 60 305 -25 57 -94 132 -145 158 -51 26
-147 32 -203 14z m174 -146 c63 -38 87 -133 47 -187 -12 -15 -26 -28 -32 -28
-12 0 -152 197 -152 214 0 26 94 28 137 1z"/>
<path d="M10895 8988 c-143 -72 -262 -132 -264 -134 -5 -5 50 -124 61 -130 4
-3 79 31 166 75 173 87 216 100 262 81 38 -16 70 -67 70 -113 0 -48 -23 -65
-228 -166 l-170 -85 34 -68 c19 -37 36 -68 39 -68 17 0 387 193 414 215 61 52
76 117 46 207 -23 67 -62 107 -125 128 l-54 18 37 18 c20 10 37 20 37 23 -1 3
-15 34 -33 67 l-32 62 -260 -130z"/>
<path d="M1765 9040 c-103 -23 -173 -163 -131 -264 18 -43 14 -56 -17 -56 -39
0 -83 -36 -111 -91 -30 -60 -33 -116 -10 -160 19 -38 16 -42 -25 -28 -18 6
-34 10 -36 8 -8 -9 -55 -122 -51 -126 4 -4 527 -243 532 -243 3 0 64 128 64
135 0 1 -78 37 -172 80 -95 43 -185 89 -200 103 -35 32 -37 76 -5 123 38 57
66 52 272 -41 98 -44 181 -80 184 -80 6 0 61 118 61 131 0 3 -75 39 -166 80
-100 44 -181 87 -202 106 -31 30 -34 37 -29 74 7 56 40 89 86 88 23 0 102 -31
216 -83 l180 -83 31 66 c17 36 28 69 25 73 -7 9 -293 141 -361 167 -59 24 -98
30 -135 21z"/>
<path d="M5365 8892 c-36 -17 -48 -34 -119 -163 -110 -200 -211 -350 -307
-453 -94 -101 -169 -157 -312 -233 -130 -70 -171 -104 -254 -211 -36 -48 -85
-107 -107 -130 -41 -44 -121 -92 -152 -92 -47 0 -102 -28 -150 -75 -39 -38
-68 -86 -128 -205 -43 -85 -95 -178 -117 -205 -54 -71 -140 -138 -334 -260
-291 -183 -350 -242 -426 -431 -34 -85 -53 -118 -87 -151 -46 -46 -97 -65
-143 -56 -15 3 -39 3 -53 -1 -15 -4 -100 -87 -213 -208 -143 -153 -216 -222
-305 -289 -64 -49 -119 -92 -122 -97 -3 -5 -1 -22 4 -38 5 -16 24 -87 41 -159
65 -273 219 -698 335 -929 319 -629 721 -1129 1250 -1552 1355 -1083 3222
-1285 4789 -519 1134 555 2005 1594 2345 2797 33 116 38 145 27 153 -7 5 -13
19 -14 30 -3 38 -45 135 -84 195 -103 154 -279 257 -469 275 -116 11 -136 28
-214 183 -51 102 -100 145 -256 227 -200 105 -246 152 -421 439 -77 125 -162
210 -284 281 -144 84 -207 153 -329 358 -141 236 -223 313 -375 352 -50 13
-72 14 -116 5 -48 -10 -86 -35 -318 -209 -145 -109 -282 -205 -305 -214 -28
-11 -69 -17 -120 -16 -74 1 -81 -1 -191 -55 -123 -61 -171 -69 -236 -42 -50
21 -116 96 -171 194 -62 110 -113 175 -166 210 -37 24 -51 27 -129 28 -74 1
-93 5 -131 26 -71 43 -107 103 -157 268 -18 58 -43 123 -56 145 -36 62 -119
134 -248 214 -65 40 -145 98 -177 128 -61 56 -73 77 -168 284 -22 47 -56 104
-76 127 -69 76 -178 108 -251 74z"/>
<path d="M11425 8479 c-11 -5 -32 -13 -47 -18 -27 -10 -27 -11 -14 -49 l14
-39 -186 -68 c-217 -78 -238 -92 -236 -163 1 -53 40 -162 57 -162 6 0 30 7 53
16 l41 16 -11 39 c-7 28 -7 42 1 50 17 17 327 129 334 121 4 -4 12 -24 19 -45
9 -30 16 -37 29 -32 9 4 30 12 46 18 17 5 31 11 33 12 1 1 -5 21 -13 45 -8 23
-15 44 -15 45 0 2 28 13 63 24 95 32 93 29 67 105 -12 36 -27 66 -33 66 -7 0
-34 -8 -62 -19 -84 -31 -95 -34 -95 -19 -1 7 -6 25 -13 39 -10 22 -16 25 -32
18z"/>
<path d="M1429 8037 c-134 -38 -212 -152 -213 -312 0 -150 133 -272 310 -283
196 -12 316 106 318 313 1 96 -19 141 -90 203 -81 72 -225 107 -325 79z m174
-167 c71 -27 108 -66 114 -123 9 -74 -40 -139 -114 -153 -47 -9 -158 20 -200
51 -36 28 -63 72 -63 104 0 40 33 103 64 122 42 25 129 25 199 -1z"/>
<path d="M11308 7619 c-51 -15 -122 -80 -143 -131 -23 -55 -23 -150 -1 -216
10 -29 36 -72 61 -99 l43 -48 -28 -33 -27 -33 14 -82 c8 -45 15 -86 16 -90 1
-5 35 30 75 77 l73 84 47 -20 c29 -14 76 -23 126 -26 73 -4 78 -3 73 14 -3 11
-9 40 -13 67 l-6 47 -42 0 c-49 0 -86 9 -86 21 0 10 99 122 112 127 5 2 21 -8
36 -23 67 -69 154 -85 236 -45 65 31 91 79 91 164 0 137 -71 222 -184 220 -62
-1 -101 -17 -150 -63 -18 -17 -34 -31 -35 -31 -1 0 -23 20 -49 45 -26 24 -60
51 -77 60 -40 21 -115 27 -162 14z m127 -155 c18 -8 43 -26 55 -39 l23 -24
-79 -91 -78 -90 -28 27 c-15 14 -35 46 -44 69 -20 53 -7 101 37 139 35 29 67
32 114 9z m400 -29 c77 -76 -36 -159 -117 -86 l-33 30 30 31 c51 55 84 62 120
25z"/>
<path d="M1089 7315 c-130 -47 -197 -148 -207 -306 -6 -118 13 -181 77 -251
93 -102 211 -143 391 -136 85 4 115 9 161 30 78 35 124 80 161 155 26 53 32
80 36 146 2 45 -1 100 -7 123 -15 56 -65 128 -113 164 -41 29 -125 67 -133 59
-2 -3 -7 -39 -11 -82 -6 -70 -5 -77 12 -83 34 -12 84 -54 99 -84 37 -71 6
-179 -63 -225 -113 -75 -362 -40 -439 62 -21 28 -28 49 -31 97 -4 84 23 132
95 166 57 27 57 27 66 133 l5 47 -32 -1 c-17 0 -47 -6 -67 -14z"/>
<path d="M11424 6471 c-130 -32 -207 -155 -208 -336 -1 -125 16 -177 78 -241
73 -75 173 -96 262 -55 65 30 89 71 145 245 54 168 77 206 124 206 63 0 95
-47 95 -139 0 -97 -33 -155 -95 -167 -32 -6 -32 -6 -39 -81 -4 -41 -5 -77 -2
-80 10 -10 116 19 148 40 41 28 94 105 110 160 17 57 16 213 -1 261 -18 51
-76 115 -126 137 -50 23 -141 24 -196 3 -59 -24 -91 -76 -134 -212 -20 -64
-48 -142 -63 -172 -25 -52 -29 -55 -68 -58 -29 -2 -47 3 -66 18 -49 38 -58
169 -17 251 17 35 68 69 103 69 11 0 16 9 16 28 0 15 3 51 6 80 7 50 6 52 -17
51 -13 -1 -38 -4 -55 -8z"/>
<path d="M1478 5705 c-224 -49 -268 -68 -298 -130 -49 -102 -7 -233 95 -291
18 -11 17 -12 -17 -19 -21 -4 -38 -12 -38 -19 2 -34 28 -131 36 -130 5 1 135
28 290 60 l281 58 -15 71 c-8 38 -15 71 -17 73 -2 2 -81 -13 -176 -33 -192
-41 -245 -42 -285 -4 -49 46 -48 140 3 167 15 9 387 92 408 92 4 0 4 8 1 18
-2 9 -10 43 -16 75 -10 49 -14 57 -33 56 -12 0 -111 -20 -219 -44z"/>
<path d="M11230 5661 c-101 -53 -130 -209 -59 -312 l19 -27 -37 9 c-21 4 -39
6 -41 4 -7 -6 -32 -128 -28 -133 3 -2 126 -31 273 -63 147 -32 276 -60 285
-63 13 -3 20 10 32 67 9 38 14 72 12 75 -3 2 -84 21 -180 43 -189 41 -200 45
-232 81 -28 31 -36 66 -23 111 12 45 42 67 89 67 28 0 222 -39 377 -75 19 -5
23 2 38 67 9 39 12 74 8 78 -15 14 -393 90 -446 90 -32 0 -66 -7 -87 -19z"/>
<path d="M1642 5040 c-110 -23 -200 -85 -247 -171 -49 -92 -33 -223 41 -331
98 -141 348 -137 489 8 58 59 79 115 73 196 -16 209 -169 337 -356 298z m164
-169 c36 -22 64 -75 64 -123 0 -77 -100 -154 -214 -165 -90 -8 -156 51 -156
142 0 60 29 98 101 134 75 38 155 42 205 12z"/>
<path d="M11074 5022 c-58 -27 -108 -92 -140 -180 -59 -161 -22 -281 97 -316
96 -29 150 3 244 144 72 108 93 127 124 110 27 -14 34 -42 21 -89 -15 -57 -49
-93 -88 -95 -29 -1 -33 -6 -55 -66 -13 -36 -22 -68 -20 -72 8 -14 105 -8 139
8 101 48 175 250 133 361 -24 65 -93 113 -162 113 -64 0 -99 -29 -183 -150
-76 -109 -109 -135 -138 -110 -33 27 -8 151 38 189 9 8 33 17 53 20 34 6 38
10 60 70 13 35 21 66 19 69 -16 15 -104 11 -142 -6z"/>
<path d="M1855 4315 c-137 -68 -254 -126 -259 -127 -6 -3 44 -119 59 -136 1
-1 122 56 269 127 l266 130 -32 65 c-18 36 -37 66 -43 65 -5 0 -122 -56 -260
-124z"/>
<path d="M10788 4404 c-28 -15 -64 -69 -93 -136 l-15 -38 48 -24 48 -24 22 39
c12 21 26 39 31 39 7 0 320 -148 329 -155 2 -2 -6 -22 -18 -45 -12 -23 -20
-43 -18 -45 2 -1 22 -12 45 -24 l43 -21 20 40 c11 22 25 40 30 40 6 0 41 -15
78 -34 l68 -34 32 64 c18 36 30 68 28 72 -2 4 -36 23 -75 41 l-70 34 19 37 19
37 -45 21 c-24 12 -47 22 -49 22 -3 0 -13 -16 -23 -35 l-18 -36 -183 91 c-101
49 -193 90 -205 90 -12 -1 -33 -7 -48 -16z"/>
<path d="M2190 4189 c-19 -12 -36 -23 -38 -24 -2 -2 4 -17 12 -34 9 -16 16
-37 16 -45 0 -14 -285 -186 -308 -186 -6 0 -13 8 -17 18 -3 9 -12 25 -19 35
-14 18 -16 18 -55 -3 -47 -23 -49 -30 -21 -76 l21 -33 -71 -41 c-38 -23 -70
-45 -70 -47 0 -10 61 -112 70 -118 4 -3 39 13 76 34 l69 40 19 -32 c11 -18 21
-33 22 -35 4 -6 84 43 84 51 0 4 -7 22 -16 39 -13 25 -14 32 -2 39 7 5 83 49
169 99 86 49 164 99 174 110 29 32 23 89 -17 162 -19 34 -41 64 -49 66 -8 1
-30 -7 -49 -19z"/>
<path d="M1458 4119 c-32 -16 -58 -32 -58 -34 0 -15 62 -125 70 -125 5 0 34
12 64 27 l55 26 -35 69 c-19 37 -35 68 -37 68 -1 -1 -28 -14 -59 -31z"/>
<path d="M10615 4101 c-74 -45 -110 -118 -104 -214 4 -61 3 -62 -35 -47 -23 8
-28 5 -65 -55 -46 -72 -50 -89 -22 -80 25 8 61 -11 240 -124 195 -123 230
-127 324 -41 94 86 146 218 118 302 -10 32 -76 107 -84 97 -2 -2 -20 -29 -39
-59 l-35 -55 20 -27 c26 -34 17 -81 -24 -131 -38 -46 -80 -51 -105 -11 -17 25
-16 28 15 102 72 168 74 226 12 295 -20 22 -50 46 -68 54 -46 19 -113 16 -148
-6z m89 -135 c54 -23 62 -58 32 -147 -14 -41 -26 -82 -28 -91 -3 -16 -8 -14
-47 11 -49 33 -81 75 -81 108 0 40 32 103 59 118 32 18 26 17 65 1z"/>
<path d="M2415 3860 c-9 -29 -30 -47 -187 -161 -75 -55 -151 -116 -168 -136
-30 -33 -32 -41 -28 -92 2 -31 14 -78 27 -104 29 -60 110 -150 155 -171 42
-20 116 -21 162 -1 39 16 39 13 -13 86 -32 45 -35 46 -76 42 -36 -4 -46 -1
-71 23 -26 26 -56 80 -56 102 0 17 41 52 61 52 12 0 55 -33 103 -79 45 -43 96
-86 113 -95 83 -42 204 1 243 87 23 49 24 67 9 120 -20 72 -120 156 -186 157
-28 0 -29 8 -2 36 l21 23 -47 65 c-26 36 -48 66 -50 66 -2 0 -7 -9 -10 -20z
m118 -280 c42 -47 36 -100 -15 -126 -39 -20 -67 -12 -120 34 -24 20 -56 46
-72 58 l-29 21 33 23 c18 13 49 29 69 36 45 15 92 -1 134 -46z"/>
<path d="M10251 3564 c-23 -30 -41 -59 -39 -64 2 -5 104 -87 228 -183 251
-195 228 -187 288 -103 l31 43 -147 114 c-81 63 -185 144 -233 181 l-86 66
-42 -54z"/>
<path d="M2756 3331 l-39 -40 31 -38 c17 -21 60 -67 96 -103 36 -35 66 -70 66
-77 0 -10 -28 -13 -113 -13 -63 0 -162 -3 -220 -6 l-106 -7 -47 -41 -47 -42
163 -172 163 -173 44 42 43 43 -32 36 c-18 19 -60 63 -92 97 -33 34 -57 65
-54 69 4 3 107 10 230 15 l223 9 39 40 39 39 -38 43 c-87 96 -299 318 -305
318 -3 0 -23 -18 -44 -39z"/>
<path d="M10053 3318 l-51 -51 139 -135 c144 -139 170 -178 156 -234 -14 -56
-79 -97 -132 -84 -13 3 -91 69 -172 146 l-148 140 -47 -49 c-27 -27 -48 -54
-48 -59 0 -15 295 -293 338 -319 40 -24 102 -30 146 -13 34 12 104 77 122 111
8 16 14 56 14 90 l0 63 33 -32 33 -32 47 54 46 54 -187 178 c-103 99 -199 189
-213 201 l-25 22 -51 -51z"/>
<path d="M10776 3151 l-45 -58 42 -33 c23 -19 47 -37 54 -42 7 -6 26 10 56 50
l45 58 -53 42 -54 42 -45 -59z"/>
<path d="M3029 2727 l-195 -221 53 -48 c29 -26 55 -48 57 -48 9 0 386 429 386
438 0 5 -24 30 -53 55 l-52 45 -196 -221z"/>
<path d="M9545 2831 c-72 -33 -135 -122 -135 -193 0 -23 -9 -23 -36 3 l-23 21
-60 -47 c-34 -27 -61 -51 -61 -56 0 -4 10 -9 22 -11 15 -2 66 -56 153 -164 71
-88 141 -169 155 -180 37 -28 121 -25 185 8 112 58 185 151 185 236 0 39 -26
122 -38 122 -3 0 -29 -18 -58 -40 -50 -39 -52 -42 -47 -80 7 -47 -12 -81 -60
-110 -40 -25 -69 -25 -90 -2 -28 30 -20 58 36 122 99 116 117 147 117 205 0
43 -6 62 -32 101 -55 80 -130 103 -213 65z m89 -152 c34 -40 33 -57 -9 -115
-19 -27 -44 -64 -56 -81 -11 -18 -25 -31 -29 -28 -21 13 -70 102 -70 127 0 61
58 128 110 128 19 0 37 -10 54 -31z"/>
<path d="M3321 2567 c-71 -101 -135 -196 -141 -211 -23 -63 -5 -129 51 -184
66 -65 139 -87 205 -62 36 14 38 9 9 -30 l-24 -33 54 -38 c29 -22 57 -39 62
-39 14 1 346 471 337 479 -5 4 -32 24 -61 44 l-51 37 -112 -155 c-144 -198
-186 -223 -273 -162 -34 23 -49 59 -41 94 4 13 58 97 120 184 63 88 114 164
114 169 0 7 -66 59 -107 83 -7 4 -59 -60 -142 -176z"/>
<path d="M9072 2466 c-68 -43 -66 -40 -46 -70 9 -15 15 -28 13 -31 -2 -2 -22
1 -44 7 -55 15 -104 4 -162 -35 -71 -48 -95 -100 -91 -202 9 -231 213 -409
385 -336 67 30 111 77 127 136 l12 48 72 -122 c40 -66 75 -121 77 -121 11 0
125 74 123 80 -10 24 -404 680 -408 679 -3 0 -29 -15 -58 -33z m-4 -200 c41
-22 78 -65 106 -126 30 -63 32 -99 11 -140 -16 -31 -80 -70 -115 -70 -102 0
-216 198 -166 288 30 55 107 77 164 48z"/>
<path d="M2737 2397 l-45 -53 56 -49 55 -49 44 48 c24 27 42 52 41 55 -2 4
-26 28 -54 54 l-51 47 -46 -53z"/>
<path d="M3976 2351 c5 -24 -12 -64 -90 -214 -84 -161 -96 -190 -96 -235 0
-45 4 -55 46 -101 62 -69 172 -124 252 -125 64 -1 117 25 151 73 l20 27 -59
32 -58 32 -36 -21 c-42 -24 -71 -21 -128 16 -45 30 -55 58 -34 90 22 33 52 32
161 -6 144 -50 220 -36 278 54 57 86 36 181 -51 242 -41 28 -50 30 -133 30
l-89 0 6 32 c6 31 4 33 -65 67 -39 20 -73 36 -76 36 -2 0 -2 -13 1 -29z m251
-201 c40 -24 50 -58 28 -99 -25 -49 -53 -55 -153 -29 -48 12 -88 23 -90 24 -9
5 41 85 64 103 35 28 107 28 151 1z"/>
<path d="M4685 2215 c-40 -22 -62 -42 -86 -82 -18 -28 -229 -593 -229 -612 0
-7 130 -54 135 -49 2 2 10 19 18 38 l14 35 17 -40 c34 -79 96 -118 191 -119
72 0 125 24 178 83 123 136 140 350 35 448 -60 56 -172 79 -232 48 -16 -9 -31
-13 -34 -11 -9 10 34 99 61 127 22 22 38 29 68 29 64 0 139 -45 139 -84 0 -17
13 -25 63 -43 34 -12 70 -25 81 -29 17 -7 18 -3 14 50 -5 64 -24 95 -86 143
-62 47 -145 75 -237 80 -61 3 -87 0 -110 -12z m125 -360 c44 -23 60 -53 60
-115 0 -67 -33 -144 -79 -183 -90 -75 -218 11 -196 131 10 61 53 139 88 161
38 24 87 27 127 6z"/>
<path d="M8457 2133 c-49 -22 -58 -29 -53 -47 7 -29 225 -499 236 -510 5 -5
36 4 74 22 l65 30 -122 266 c-67 146 -126 266 -132 265 -5 0 -36 -12 -68 -26z"/>
<path d="M8173 2013 c-35 -14 -63 -28 -63 -31 0 -10 277 -733 283 -738 9 -9
138 49 134 60 -49 138 -282 736 -286 735 -3 0 -34 -12 -68 -26z"/>
<path d="M7145 1993 c-47 -10 -97 -39 -110 -63 -19 -37 -36 -108 -110 -455
-36 -170 -67 -321 -70 -334 -6 -23 -5 -23 57 -16 35 3 70 8 79 11 12 3 21 48
44 207 15 111 31 211 35 221 5 14 31 -36 94 -180 48 -109 91 -202 95 -207 7
-7 150 8 158 17 3 2 -62 136 -142 297 -143 284 -147 294 -136 329 11 39 42 60
86 60 21 0 25 5 25 29 0 16 -3 43 -6 60 -6 28 -10 31 -43 30 -20 -1 -45 -3
-56 -6z"/>
<path d="M7868 1909 c-33 -12 -55 -25 -53 -32 2 -7 41 -131 86 -277 45 -146
83 -267 85 -269 4 -5 125 29 136 38 4 4 -31 129 -77 280 -47 150 -85 275 -85
277 0 9 -37 2 -92 -17z"/>
<path d="M5345 1819 c-2 -8 -20 -80 -39 -161 -53 -223 -68 -243 -183 -237
l-67 4 -17 -72 -16 -72 42 -6 c49 -8 94 8 144 51 l34 29 -6 -28 c-20 -82 -22
-75 20 -86 96 -24 102 -24 108 1 3 13 32 137 65 277 33 139 60 259 60 266 0 6
-26 18 -57 25 -32 7 -64 15 -70 17 -7 3 -15 -1 -18 -8z"/>
<path d="M7495 1819 c-65 -13 -95 -23 -95 -32 -1 -4 2 -28 6 -53 l7 -46 47 7
c48 7 48 6 59 -27 16 -52 71 -288 71 -308 0 -12 -13 -21 -43 -29 l-44 -10 11
-51 c11 -54 12 -55 88 -34 13 4 20 -5 28 -38 6 -24 16 -60 21 -81 9 -33 13
-38 32 -33 12 3 45 11 73 17 l51 11 -18 77 c-10 42 -18 79 -19 83 0 3 18 9 41
13 28 5 39 11 35 20 -3 8 -8 30 -12 50 -7 37 -7 37 -48 31 l-42 -7 -43 188
c-24 103 -50 200 -57 215 -9 18 -27 31 -52 37 -41 12 -41 12 -97 0z"/>
<path d="M5835 1726 c-120 -38 -206 -135 -246 -276 -20 -71 -17 -245 4 -310
51 -156 184 -242 372 -243 108 -1 171 21 240 85 92 84 135 202 135 369 0 193
-98 331 -265 374 -71 18 -184 19 -240 1z m199 -138 c116 -35 172 -182 132
-349 -30 -130 -103 -199 -210 -199 -125 0 -195 63 -216 195 -16 100 18 244 73
304 50 54 138 74 221 49z"/>
<path d="M8738 1523 c-32 -14 -58 -29 -58 -34 0 -5 11 -33 25 -64 l24 -56 33
14 c18 8 49 22 69 32 l36 17 -25 59 c-14 33 -30 59 -36 58 -6 0 -37 -12 -68
-26z"/>
<path d="M8083 1276 c-34 -11 -64 -23 -67 -26 -8 -8 30 -125 40 -125 27 0 134
40 134 50 0 15 -31 108 -39 116 -3 4 -34 -3 -68 -15z"/>
</g>
</svg>
