<svg id="Layer_1" data-name="Layer 1" xmlns="http://www.w3.org/2000/svg" width="252" height="139" viewBox="0 0 252 139"><title>logo-stand_up</title><path d="M17.83,9a7.73,7.73,0,0,0-4.89-1.88c-1.35,0-3.16.79-3.16,2.37s2,2.3,3.27,2.71l1.89.56c4,1.17,7,3.16,7,7.75,0,2.83-.67,5.72-2.93,7.64a12.39,12.39,0,0,1-8,2.67A17.48,17.48,0,0,1,1,27.56l3.16-5.95a10.09,10.09,0,0,0,6.54,2.94c1.73,0,3.58-.87,3.58-2.86s-2.9-2.79-4.48-3.24c-4.63-1.31-7.68-2.52-7.68-8C2.1,4.68,6.21.92,11.89.92a19.39,19.39,0,0,1,8.88,2.33Z" style="fill:#2259a9"/><path d="M37.81,30H30.43V7.92H24.34V1.67H43.91V7.92h-6.1Z" style="fill:#2259a9"/><path d="M52.48,25.11l-2,4.93H42.7L53.61,1.67h8L72.35,30H64.48l-1.84-4.93Zm5.16-14.67h-.08l-3.05,9h6.14Z" style="fill:#2259a9"/><path d="M75.05,1.67h7.38L95.94,19H96V1.67h7.38V30H96L82.5,12.66h-.07V30H75.05Z" style="fill:#2259a9"/><path d="M109.59,1.67h10.46a14.19,14.19,0,1,1,0,28.37H109.59ZM117,23.8h1.66c4.4,0,8.17-2.41,8.17-7.94,0-5.08-3.35-7.94-8.09-7.94H117Z" style="fill:#2259a9"/><path d="M176.22,1.67v16c0,3.65-.15,7.27-3,10-2.37,2.34-6.1,3.16-9.41,3.16s-7-.82-9.4-3.16c-2.83-2.74-3-6.36-3-10V1.67h7.38V16.61c0,3.69.26,7.71,5,7.71s5-4,5-7.71V1.67Z" style="fill:#2259a9"/><path d="M181.6,1.67h11.29C199,1.67,203.2,4.49,203.2,11c0,6.7-3.62,9.64-10,9.64H189V30H181.6Zm7.37,13h1.24c2.68,0,5.31,0,5.31-3.46s-2.44-3.61-5.31-3.61H189Z" style="fill:#2259a9"/><path d="M9.63,45.92v4.74h8.09V56.9H9.63V68H2.25V39.67h16.3v6.25Z" style="fill:#2259a9"/><path d="M53,53.33C53,62.51,46.43,69,37.32,69S21.63,62.51,21.63,53.33c0-8.58,7.53-14.6,15.69-14.6S53,44.75,53,53.33Zm-23.7,0a8,8,0,1,0,16,0c0-3.92-3.61-7.49-8-7.49S29.31,49.45,29.31,53.37Z" style="fill:#2259a9"/><path d="M80.44,68H71.26l-7-10.91h-.07V68H56.84V39.67h11c5.61,0,9.86,2.67,9.86,8.73,0,3.91-2.19,7.3-6.21,8ZM64.22,52.39h.71c2.41,0,5.12-.45,5.12-3.54s-2.71-3.54-5.12-3.54h-.71Z" style="fill:#2259a9"/><path d="M114.18,50.62V39.67h7.38V68h-7.38V56.42H103.53V68H96.16V39.67h7.37V50.62Z" style="fill:#faa31b"/><path d="M151.39,39.67V55.62c0,3.65-.15,7.27-3,10-2.37,2.34-6.1,3.16-9.41,3.16s-7-.82-9.41-3.16c-2.82-2.74-3-6.36-3-10V39.67H134V54.61c0,3.69.26,7.71,5,7.71s5-4,5-7.71V39.67Z" style="fill:#faa31b"/><path d="M159.59,39.67h7.26l5.76,15.17,6.1-15.17H186L190.33,68H183l-2.07-16.33h-.08L174,68h-2.93l-6.51-16.33h-.08L162.11,68h-7.34Z" style="fill:#faa31b"/><path d="M200.94,63.11,199,68h-7.83l10.92-28.37h8.05L220.8,68h-7.86l-1.84-4.93Zm5.15-14.67H206l-3.05,9h6.13Z" style="fill:#faa31b"/><path d="M222.46,39.67h7.37L243.34,57h.07V39.67h7.38V68h-7.38l-13.5-17.38h-.08V68h-7.37Z" style="fill:#faa31b"/><path d="M25.85,106H16.67l-7-10.91H9.63V106H2.25V77.67h11c5.61,0,9.86,2.67,9.86,8.73,0,3.91-2.18,7.3-6.21,8ZM9.63,90.39h.71c2.41,0,5.12-.45,5.12-3.54s-2.71-3.54-5.12-3.54H9.63Z" style="fill:#faa31b"/><path d="M36.3,106H28.93V77.67H36.3Z" style="fill:#faa31b"/><path d="M70,90.2c-.08,4.14-.38,7.68-2.9,11.21-2.78,3.88-7,5.57-11.7,5.57-8.92,0-15.13-6-15.13-15,0-9.22,6.25-15.28,15.39-15.28,5.83,0,10.35,2.63,12.8,7.94l-7,2.93a6.42,6.42,0,0,0-6.14-4.51c-4.85,0-7.37,4.63-7.37,9s2.63,8.89,7.49,8.89c3.19,0,5.64-1.66,5.94-4.93h-6V90.2Z" style="fill:#faa31b"/><path d="M91.8,88.62v-11h7.37V106H91.8V94.42H81.15V106H73.77V77.67h7.38v11Z" style="fill:#faa31b"/><path d="M116.06,106h-7.37V83.92h-6.1V77.67h19.57v6.25h-6.1Z" style="fill:#faa31b"/><path d="M140.82,85a7.77,7.77,0,0,0-4.89-1.88c-1.36,0-3.16.79-3.16,2.37s2,2.3,3.27,2.71l1.88.56c4,1.17,7,3.16,7,7.75,0,2.83-.68,5.72-2.93,7.64a12.5,12.5,0,0,1-8.06,2.68,17.54,17.54,0,0,1-10-3.24l3.16-6a10.13,10.13,0,0,0,6.55,2.94c1.73,0,3.57-.87,3.57-2.86s-2.89-2.79-4.47-3.24c-4.63-1.31-7.68-2.52-7.68-8,0-5.76,4.1-9.52,9.78-9.52a19.39,19.39,0,0,1,8.88,2.33Z" style="fill:#faa31b"/><rect x="2.34" y="115.47" width="248.39" height="1.5" style="fill:#2259a9"/><path d="M6.54,125.47,6,128.73H8l.56-3.26H9.78l-.56,3.26h1.47V130H9l-.46,2.74h1.61V134H8.32l-.64,3.57H6.46L7.09,134h-2l-.67,3.57H3.25L3.87,134H2.24v-1.25H4.08L4.54,130H2.83v-1.25H4.74l.57-3.26Zm-1.21,7.25h2L7.76,130h-2Z" style="fill:#2259a9"/><path d="M20.51,127.82a2.21,2.21,0,0,0-2.08-1.31,1.92,1.92,0,0,0-2,1.87c0,1,1.07,1.52,1.89,1.89l.8.35c1.57.69,2.9,1.48,2.9,3.4a3.81,3.81,0,0,1-7.56.6l1.32-.36a2.48,2.48,0,0,0,2.41,2.24,2.43,2.43,0,0,0,2.48-2.36c0-1.4-1.1-1.88-2.22-2.4l-.74-.32c-1.41-.64-2.62-1.36-2.62-3.09a3.16,3.16,0,0,1,3.37-3.07,3.48,3.48,0,0,1,3.13,1.87Z" style="fill:#2259a9"/><path d="M29.62,137.54H28.27V126.72H25.36v-1.25h7.2v1.25H29.62Z" style="fill:#2259a9"/><path d="M36.9,134.11l-1.46,3.43H34l5.57-12.65L45,137.54H43.47l-1.42-3.43ZM39.51,128l-2.07,4.83h4.08Z" style="fill:#2259a9"/><path d="M48.78,125l9.41,9.86v-9.35h1.35v12.61l-9.41-9.84v9.3H48.78Z" style="fill:#2259a9"/><path d="M64.48,125.47h2.27a6.58,6.58,0,0,1,4.71,1.46,6.2,6.2,0,0,1,0,9.09,6.41,6.41,0,0,1-4.77,1.52H64.48Zm2.32,10.82A5.08,5.08,0,0,0,70.61,135a4.94,4.94,0,0,0-.06-7.15,5.2,5.2,0,0,0-3.75-1.17h-1v9.57Z" style="fill:#2259a9"/><path d="M79.07,132.66a4.44,4.44,0,0,0,.53,2.68A3.11,3.11,0,0,0,82,136.5a3.17,3.17,0,0,0,2.37-1.08,4.13,4.13,0,0,0,.59-2.76v-7.19h1.35V133a4.25,4.25,0,0,1-1.06,3.35A4.42,4.42,0,0,1,82,137.75a4.54,4.54,0,0,1-3.12-1.24A4.27,4.27,0,0,1,77.73,133v-7.55h1.34Z" style="fill:#2259a9"/><path d="M92.5,137.54H91.15V125.47h2a5.06,5.06,0,0,1,3,.64,3.31,3.31,0,0,1,1.36,2.75,3.41,3.41,0,0,1-1.15,2.6,4.38,4.38,0,0,1-2.87.8h-1Zm0-6.53h.89c1.49,0,2.76-.45,2.76-2.18,0-2-1.59-2.11-3.16-2.11H92.5Z" style="fill:#2259a9"/><path d="M109.52,134.34v1.24H108v2h-1.34v-2h-6.18L108,124.8h0v9.54Zm-2.83-5.46h0l-3.8,5.46h3.83Z" style="fill:#2259a9"/><path d="M121.51,130.37v-4.9h1.34v12.07h-1.34v-5.93h-6.18v5.93H114V125.47h1.35v4.9Z" style="fill:#2259a9"/><path d="M129.09,132.66a4.44,4.44,0,0,0,.53,2.68,3.09,3.09,0,0,0,2.43,1.16,3.18,3.18,0,0,0,2.37-1.08,4.13,4.13,0,0,0,.59-2.76v-7.19h1.34V133a4.24,4.24,0,0,1-1,3.35,4.42,4.42,0,0,1-3.25,1.38,4.5,4.5,0,0,1-3.12-1.24,4.25,4.25,0,0,1-1.19-3.49v-7.55h1.35Z" style="fill:#2259a9"/><path d="M142.74,124.78l4.38,10.13,4.4-10.13L154,137.54H152.6L151,129.37h0L147.12,138l-3.87-8.66h0l-1.56,8.17h-1.37Z" style="fill:#2259a9"/><path d="M159.74,134.11l-1.45,3.43h-1.48l5.57-12.65,5.43,12.65h-1.49l-1.42-3.43Zm2.61-6.08-2.06,4.83h4.08Z" style="fill:#2259a9"/><path d="M171.63,125l9.41,9.86v-9.35h1.35v12.61L173,128.24v9.3h-1.34Z" style="fill:#2259a9"/><path d="M188.67,137.54h-1.34V125.47h1.74c2.29,0,4.42.61,4.42,3.33a3.16,3.16,0,0,1-3,3.33l3.85,5.41h-1.65l-3.65-5.3h-.34Zm0-6.48h.42c1.52,0,3-.29,3-2.17s-1.45-2.17-3.07-2.17h-.4Z" style="fill:#2259a9"/><path d="M199.81,137.54h-1.35V125.47h1.35Z" style="fill:#2259a9"/><path d="M215.91,131.47a5.78,5.78,0,0,1-1.25,4.26,6,6,0,0,1-4.47,2,6.25,6.25,0,1,1,5.19-9.88l-1,.91a4.92,4.92,0,0,0-4.14-2.27,5,5,0,0,0-4.93,5,4.85,4.85,0,0,0,1.41,3.41,5.07,5.07,0,0,0,3.42,1.54c2.1,0,4.31-1.54,4.31-3.78h-3.59v-1.25Z" style="fill:#2259a9"/><path d="M227.83,130.37v-4.9h1.34v12.07h-1.34v-5.93h-6.18v5.93H220.3V125.47h1.35v4.9Z" style="fill:#2259a9"/><path d="M237.3,137.54H236V126.72H233v-1.25h7.2v1.25H237.3Z" style="fill:#2259a9"/><path d="M249.52,127.82a2.22,2.22,0,0,0-2.08-1.31,1.92,1.92,0,0,0-2,1.87c0,1,1.07,1.52,1.89,1.89l.8.35c1.57.69,2.89,1.48,2.89,3.4a3.81,3.81,0,0,1-7.55.6l1.31-.36a2.49,2.49,0,0,0,2.42,2.24,2.43,2.43,0,0,0,2.48-2.36c0-1.4-1.1-1.88-2.22-2.4l-.74-.32c-1.41-.64-2.63-1.36-2.63-3.09a3.17,3.17,0,0,1,3.38-3.07,3.46,3.46,0,0,1,3.12,1.87Z" style="fill:#2259a9"/></svg>