<?xml version="1.0" encoding="utf-8"?>
<!-- Generator: Adobe Illustrator 23.1.1, SVG Export Plug-In . SVG Version: 6.00 Build 0)  -->
<svg version="1.1" id="Layer_2" xmlns="http://www.w3.org/2000/svg" xmlns:xlink="http://www.w3.org/1999/xlink" x="0px" y="0px"
	 viewBox="0 0 295 53" style="enable-background:new 0 0 295 53;" xml:space="preserve">
<style type="text/css">
	.st0{fill-rule:evenodd;clip-rule:evenodd;fill:#0082C4;}
</style>
<g id="Symbols">
	<g transform="translate(-135.000000, -30.000000)">
		<path id="Fill-1" class="st0" d="M409.9,79.1l2.8-4c1.6,1.8,4.4,3.3,7.7,3.3c2.8,0,4.2-1.3,4.2-2.7c0-4.2-13.9-1.3-13.9-10.4
			c0-4,3.4-7.4,9.1-7.4c3.8,0,7,1.2,9.4,3.4l-2.8,3.9c-2-1.8-4.6-2.7-7-2.7c-2.1,0-3.4,0.9-3.4,2.4c0,3.8,13.8,1.3,13.8,10.2
			c0,4.5-3.2,7.8-9.7,7.8C415.6,83,412.2,81.5,409.9,79.1L409.9,79.1z M402.8,66c0-2-1.5-3.3-3.5-3.3h-5.4v6.6h5.4
			C401.3,69.3,402.8,68.2,402.8,66L402.8,66z M402.4,82.5l-4.7-8.6h-3.8v8.6h-5.1V58.3H400c5.1,0,8.1,3.3,8.1,7.8
			c0,4.2-2.7,6.6-5.3,7.2l5.4,9.3H402.4z M384.5,62.9h-11.9v5.1h11.7v4.6h-11.7v5.5h11.9v4.5h-17.1V58.3h17.1V62.9z M363.3,62.9
			h-11.9v5.1H363v4.6h-11.7v5.5h11.9v4.5h-17V58.3h17V62.9z M336.7,82.5h-5.1V62.9h-7.1v-4.6h19.2v4.6h-7.1V82.5z M305.8,58.3
			l11.1,15.3V58.3h5.2v24.3h-5l-11.4-15.8v15.8h-5.2V58.3H305.8z M274.2,72.9V58.3h5.2v14.4c0,3.4,2,5.8,5.7,5.8
			c3.7,0,5.7-2.4,5.7-5.8V58.3h5.2v14.6c0,6-3.5,10.1-10.9,10.1C277.7,83,274.2,78.9,274.2,72.9L274.2,72.9z M261.9,78.1H272v4.5
			h-15.3V58.3h5.2V78.1z M248.1,70.4c0-4.6-2.8-8-7.3-8s-7.3,3.4-7.3,8c0,4.5,2.8,8,7.3,8S248.1,75,248.1,70.4L248.1,70.4z
			 M228.2,70.4c0-7.3,5.3-12.6,12.6-12.6c7.3,0,12.6,5.3,12.6,12.6c0,7.3-5.3,12.6-12.6,12.6C233.6,83,228.2,77.7,228.2,70.4
			L228.2,70.4z M203.5,58.3h5.9l6.6,18.6l6.7-18.6h5.8l-9.3,24.3h-6.4L203.5,58.3z M235.8,30l11.1,15.3V30h5.2v24.3h-5l-11.6-15.8
			v15.8h-5.1V30H235.8z M204.2,44.6V30h5.2v14.4c0,3.4,2,5.8,5.7,5.8c3.7,0,5.7-2.4,5.7-5.8V30h5.2v14.6c0,6-3.5,10.1-10.9,10.1
			C207.7,54.7,204.2,50.6,204.2,44.6L204.2,44.6z M156.2,53.4c-0.4,0.1-0.6,0.1-0.8-0.1c0.2,0.6,0.3,1.3,0.2,1.9
			c0-0.4,0.6-0.6,0.1-0.8C156,54,155.9,53.4,156.2,53.4L156.2,53.4z M156.2,54.1c-0.1,0.4,0.2,0.5,0.1,0.8c0.5,0.5,0.8,0.9,0.7,1.6
			c0.4,0.5,0.2,1.2,0.4,1.8c0.2,0.2,0.5,0.7,0.4,1.1c0,0.2-0.2,0.2-0.4,0.4c-0.1,0.2,0.1,0.1,0.1,0.2l2.2-2.4
			c-0.8-0.9-1.4-2.1-1.6-3.3l-0.2-0.1c0,0.4,0,0.7-0.3,0.8c-0.1-0.1-0.5-0.2-0.5-0.5c0.1-0.2,0.2-0.1,0.4-0.1V54
			c0-0.2-0.2-0.4,0-0.5c0.2,0,0.2,0.2,0.5,0.4l0.4-0.2c-0.1-0.4,0.1-0.9,0-1.4c0-0.4-0.5-0.2-0.7-0.2c-0.6,0.2,0,0.8,0,1.2
			c-0.1,0.4-0.4,0.1-0.6,0.2C157.1,53.9,156.6,54,156.2,54.1L156.2,54.1z M165.7,42.1c2.1,0,4.1,0.7,5.8,1.9
			c-0.1-0.1-0.4-0.5-0.4-0.6h0.1c0-0.4-0.5-0.5-0.2-0.7c0.4,0,0.7,0.6,1,0.8c1.2,0,0.5,1.3,1.3,1.8c0.2,0.1-0.1,0.5,0.2,0.5
			c0.2,0.2,0.6,0.5,0.6,0.8c0.1,0.6,0.6-0.2,0.8,0.2c0.2,0.2-0.1,0.4-0.1,0.5c0.1,0.1,0.2-0.1,0.4,0c0,0.2-0.1,0.2-0.2,0.4
			c-0.1,0.4,0.4,0.1,0.5,0.4c0.2,0.4,0.4,0.9,0,1.4c0.5,0.5-0.1,0.9-0.1,1.3c-0.4,0.2-0.4,0.9-1,0.8c-0.1,0.2,0.1,0.5,0,0.7h1
			c-0.6-0.8,0.1-1.5,0.4-2.2c0.1,0,0.2-0.4,0.3,0c0,0.4-0.1,0.7-0.1,0.9c0.2,0.4,0.1,0.9,0.2,1.4h2.6c-0.2-1.6-0.6-3.3-1.3-4.8
			c-0.2,0.1-0.4,0.2-0.6,0.1c-0.2-0.4-0.5-0.8-1-1.2c-0.4,0-0.6-0.2-0.8-0.5c-0.6,0-0.4-0.8-0.9-0.7c-0.4-0.1-0.5-0.4-0.6-0.6
			c0-0.4,0-0.9-0.5-1.2c-0.2-0.1-0.5,0-0.6,0.1c-0.4,0.2-0.5-0.1-0.5-0.4c-0.4-0.2,0-0.6-0.1-0.8c-0.5-0.4-0.2-1.2-0.9-1.5
			c-1.1-0.6-2.2-0.8-3.4-1.1c-0.6-0.1-1.3-0.1-1.9-0.2C165.8,40.4,165.8,41.3,165.7,42.1L165.7,42.1z M151.4,49.9
			c0.6-2.5,1.6-4.8,3.5-6.7l-1.8-1.8l-0.1-0.2c-2.8,3.1-4.5,7-4.6,11.2h2.7C151,51.6,151.3,50.7,151.4,49.9L151.4,49.9z M158.7,45.6
			c0.7,0.5,1.2,1.2,1.9,1.8c1.1-1.1,2.6-1.6,4.1-1.8c0-0.7-0.1-1.8,0-2.6l-0.1,0.1C162.4,43.2,160.5,44.3,158.7,45.6L158.7,45.6z
			 M164.8,49.9c0,0.2,0.2,0.6,0,0.8c-0.4,0.4-1.1,0.4-1.1,0.8c-0.8,0.2-0.5,1.2-0.7,1.8c-0.5,0.1-0.4-0.5-0.6-0.7l-0.1,0.1
			c-0.7-0.6-0.6,0.7-1.1,0.7c0.6,0.1,0.9-0.2,1.5-0.2c0,0.1,0.1,0.1,0.1,0.2h0.1c0.1-0.1,0.1-0.2,0.1-0.5c0-0.1,0.2-0.2,0.4-0.1
			c0,0.1,0.1,0.4,0.2,0.4l-0.2,0.4c-0.1,0.1,0,0.6-0.4,0.6c-0.1,0-0.1,0-0.1-0.1h-0.1l0.2,0.4c0.2,0,0.2-0.5,0.5-0.5
			c0.2-0.1,0.3-0.4,0.2-0.6c0.4-0.4,0.8-0.1,1.2-0.1c0.1,0.1,0.4,0.1,0.2,0.4c0.1,0.4-0.1,0.6-0.2,0.8c0.1,0.1-0.1,0.4-0.1,0.5
			c-0.4,0.4-0.7,0.2-1.1,0.2c0.6,0.4,1.1,0.6,1.8,0.6c0.7,0,0.4-0.8,0.8-1.1h0.8c0.1-0.2,0.1-0.6,0.2-0.8c-0.2-0.1-0.2-0.5-0.2-0.6
			c-0.1-0.2-0.1-0.6-0.5-0.6c-0.1-0.2,0.1-0.2,0.1-0.5c0.5-0.2-0.2-0.5,0-0.7c-0.6-0.1-0.7-0.9-1.4-0.7
			C165.2,50.5,164.8,50.4,164.8,49.9c0.1-0.1,0.5,0,0.6,0l-0.1-0.1C165,49.8,164.8,49.8,164.8,49.9L164.8,49.9z M164.8,46.6
			c-1.4,0.2-2.7,0.7-3.7,1.8c0.4,0.1,0.7,0.2,0.9,0.5c0.1,0.1-0.1,0.2-0.1,0.2c0.2,0.4,0.2-0.1,0.5-0.1c0.2,0.2,0.4,0.4,0.7,0.2
			c0.1,0.2,0.4,0,0.6,0c0.1-0.2,0.4-0.4,0.2-0.6c0.1-0.2,0.1-0.5,0.4-0.5c-0.1,0.8,0.6,0,0.8,0.4C164.6,47.9,164.7,47.2,164.8,46.6
			L164.8,46.6z M164.8,38.6c-0.1-0.8-0.1-1.8,0-2.6c-4.2,0.2-7.9,1.9-11,4.6l2,1.9C158.1,40,161.2,38.7,164.8,38.6L164.8,38.6z
			 M156.2,43.1c0.7,0.5,1.3,1.2,1.9,1.8c1.8-1.8,4.1-2.7,6.7-2.8v-2.6C161.6,39.8,158.6,41,156.2,43.1L156.2,43.1z M154.9,62.6
			c-0.4-0.2-0.6-0.6-0.8-0.8c-0.5-0.1-0.7-0.5-0.8-0.8c0,0,0,0.1-0.1,0.1c-0.4,0.2-0.5-0.2-0.7-0.5c-0.2-0.1,0-0.6-0.5-0.5
			c-0.2-0.4-0.7-0.4-0.8-0.8l-0.1,0.2c-0.4,0-0.5-0.4-0.7-0.6c-0.6,0.2-0.3-0.7-0.7-0.9c-0.1-0.6,0-1.1,0.4-1.4
			c0.2-0.1,0.6,0,0.6,0.1c0.3,0.1,0.1-0.2,0.2-0.4c0.5-0.4,0.7,0.1,0.9,0.5c-0.4-1.1-0.6-2.4-0.6-3.4c-0.8,0.1-1.8,0.1-2.7,0
			c0.2,4.2,1.8,7.9,4.5,11.1C153.5,63.8,154.2,63.1,154.9,62.6L154.9,62.6z M158.8,61.6c0,0.2,0.4,0.4,0.2,0.6
			c-0.6,0.4-1.3,0.1-1.8,0.5c-0.5,0.2-0.9-0.4-1.2-0.2c2.5,2.1,5.3,3.5,8.5,3.7l0.2,0.1c-0.1-0.8-0.1-1.8,0-2.6
			C162.5,63.8,160.5,62.9,158.8,61.6L158.8,61.6z M182.9,66.3l-0.4,0.2c1.9-3.2,0.8-7.8,2.4-11.2c-0.1,2.8,1.5,6-0.2,8.5l-0.2,0.4
			c0,0.1,0.1,0,0.2,0c1.2-2.4,3.8-4.2,5.2-6.5c0.4-0.6,0.6-1.2,0.6-1.9C191.2,60.9,186.6,64.3,182.9,66.3L182.9,66.3z M181.9,69.7
			c-1.4,0.4-2.8,0.5-4.2,0.9c2.6-2.2,2.4-5.8,4.2-8.4l1.4-1.9c-1.3,2.8-0.5,6.7-3.4,8.7l-0.1,0.1h0.2c1.8-1.5,3.9-2.6,5.9-3.5
			c1.2-0.8,2.4-1.8,3-3.1C188.4,65.8,185.1,68.9,181.9,69.7L181.9,69.7z M178.4,73c-2.6,0.1-4.7-1.1-7.2-1.2
			c1.2-0.4,2.3-0.6,3.2-1.3c1.8-1.4,3.4-3.5,5.3-4.7c-1.3,2.1-2.1,5.4-5.3,5.8c0,0-0.1,0-0.1,0.1c1,0,1.9-0.2,2.8-0.4
			c2.8-0.2,5.9-0.1,7.9-2.5C183.8,71.3,181.3,72.9,178.4,73L178.4,73z M174.4,75.7c-2.5-0.2-4.1-2.1-6.3-3.1c-0.6,0-1.2-0.1-1.6,0
			c2,1.1,3.9,2.4,5.5,3.9l-1.1,0.8c-1.5-1.8-3.5-3.5-5.5-4.5c-2.1,0.9-4.1,2.6-5.7,4.6l-1.1-0.8c1.6-1.8,3.5-2.9,5.7-4
			c-2.4-0.7-3.9,1.6-5.8,2.5c-2,1.1-5,1.2-7-0.1c-0.7-0.5-1.3-0.8-1.9-1.5c3.1,2.2,7.1,0.2,10-1.1c1.7-0.6,3.9-0.6,5.6,0
			c3.3-1.2,6.6,0.2,9.4,1.5c1.5,0.5,3.4,0.6,4.8,0l1.2-0.6C179.4,75.1,177,76,174.4,75.7L174.4,75.7z M145.6,69.1
			c2.1,2.4,5.4,2,8.3,2.4c0.8,0,1.6,0.4,2.5,0.4c-0.7-0.4-1.6-0.5-2.4-1.1c-1.8-1.2-1.9-3.2-3.1-4.7c3,1.8,4.9,5.8,8.6,5.9
			c-3.2,0.2-6.1,2.1-9.5,0.8C148.3,72.3,146.7,70.8,145.6,69.1L145.6,69.1z M141.8,63c1.3,2.9,4.6,3.7,7,5.2
			c0.7,0.5,1.3,1.2,2.1,1.5c-2.5-1.8-2.7-4.8-3.2-7.5l-0.5-1.2c2,2.1,2.9,4.8,3.9,7.4c0.5,1.1,0.9,1.9,1.9,2.6
			c-2.6-0.7-5.5-0.6-7.7-2.5C143.7,67,142.2,65.1,141.8,63L141.8,63z M140.3,56.3c0.4,3.2,3.8,4.7,5.2,7.3c0.2,0.4,0.5,0.8,0.8,0.9
			c-1.1-1.5-1.4-3.8-0.8-5.7c0.1-0.9,0.5-2,0.4-3.1c1.5,3.4,0.5,7.8,2.4,11.1c-2.6-1.8-6.6-3.7-7.5-7.2
			C140.3,58.6,140.3,57.3,140.3,56.3L140.3,56.3z M140.9,48.8c-0.5,3.2,1.9,5.4,2.2,8.4c0,0.6,0.2,1.1,0.5,1.4
			c-0.1-0.8-0.4-1.8-0.2-2.7c0.2-2.2,2.2-3.9,2.6-6c0.1,3.1-0.9,5.8-1.6,8.5c-0.1,0.8-0.1,1.8,0,2.6c-1.1-1.9-3.1-3.3-3.7-5.5
			C140.1,53.5,140.1,50.9,140.9,48.8L140.9,48.8z M141.5,46.4c0.4-1.4,0.9-2.8,1.9-4c-1.4,2.4,0.2,5.1-0.2,7.8l-0.1,1.5l0.1,0.1
			c0.1-0.4,0.2-0.7,0.2-1.1c0.5-2.4,3.1-3.5,4.2-5.4c-0.2,3.7-3.9,5.9-4.4,9.3C142.8,51.8,140.9,49.4,141.5,46.4L141.5,46.4z
			 M144.4,41.4c0.6-1.1,1.7-2,2.8-2.4c-2.4,1.6-1.7,4.8-2.8,7.1h0.1c0.8-2.7,4.1-3.1,5.1-5.7c-0.1,2.1-1.8,4.1-3.7,5.3
			c-0.8,0.7-1.8,1.6-2.2,2.6C144.2,46.1,143.1,43.4,144.4,41.4L144.4,41.4z M152.1,36.7c-2,1.5-2.6,3.9-4.7,5.4l-1.4,1.2
			c0.5-1.4,0.7-2.8,1.6-4C148.8,37.9,150.6,37.4,152.1,36.7L152.1,36.7z M156.4,37.4c4.7-2.9,12-3.3,17-0.5c3.1,1.4,6,4.5,7.7,7.5
			c3.4,5.5,2.7,14-1.4,19.1c-4.5,5.9-11.9,8.5-19.2,6.5c-6.7-1.8-12.1-8.1-12.7-15C146.8,47.7,150.2,41.1,156.4,37.4L156.4,37.4z
			 M183.5,40.5c0.4,0.8,0.5,1.8,0.8,2.5c-1.8-1.3-3.7-3.2-5-5.2l-1.3-1.3C180.3,37.2,182.8,38.3,183.5,40.5L183.5,40.5z M186.6,42.4
			c0.6,1.9-0.1,3.9,0.2,5.8c-1.3-2.7-4.8-3.4-5.8-6.4l-0.4-1.5c1.2,2.6,4.4,2.9,5.3,5.7c0-0.7-0.5-1.4-0.7-2.1
			c-0.6-1.8-0.5-3.9-2.2-5.1C184.7,39.3,186.1,40.7,186.6,42.4L186.6,42.4z M189.1,46.3c0.7,3.1-1.2,5.3-1.5,8
			c-0.4-2.9-3.2-4.7-4.1-7.4c-0.2-0.6-0.4-1.3-0.5-1.9c1.1,1.9,3.8,3.1,4.2,5.3c0.1,0.5,0.1,0.8,0.2,1.3c0.1-1.1-0.1-2-0.1-3.1
			c0.1-2.1,0.8-4.6-0.5-6.4C188,43.2,188.7,44.7,189.1,46.3L189.1,46.3z M188,58.4c-0.7,0.7-1.2,1.5-1.8,2.4
			c0.6-3.3-1.5-5.9-1.6-9.1c-0.1-0.6-0.1-1.3-0.1-1.9c0.6,2.6,3.2,4.4,2.8,7.3c0,0.5-0.2,0.9-0.2,1.4c0.6-0.8,0.3-1.9,0.7-2.8
			c0.7-2.4,2.2-4.4,1.9-7.1C191.1,51.7,190.5,55.9,188,58.4L188,58.4z M135,82.5h60.8V30H135V82.5z M159.9,54.9
			c0-0.5-0.6-0.1-0.7-0.4l0.1,0.2c0.2,0.8,0.7,1.5,1.1,2.2l0.7-0.8v-0.2c-0.1-0.2,0-0.6-0.2-0.7c-0.1,0.2,0.1,0.2,0,0.5
			c-0.2-0.1-0.5-0.2-0.6-0.5C160.4,54.7,160.1,55,159.9,54.9L159.9,54.9z M164.4,59.1c0-0.4,0-0.6,0.1-0.8c0.1-0.1,0.5,0,0.6-0.1
			c0-0.1-0.1-0.1-0.2-0.2c-0.1-0.2,0-0.5,0-0.6c0.1-0.1-0.1-0.4,0.1-0.5c-0.5,0.2-0.9-0.1-1.4-0.2c-0.2-0.2-0.7-0.2-0.7-0.6
			l-1.6,1.8C162.1,58.4,163.2,59,164.4,59.1z M152,53.4c0.1,1.2,0.5,2.4,0.5,3.5c0.1-0.1,0-0.4,0.2-0.4c0.1-0.6,0.1-1.2,0.5-1.8
			c0.6,0,0.6-0.7,1.1-0.7c0.1,0.1,0.2,0.1,0.2,0.2c-0.2-0.4-0.2-0.8-0.1-1.1C153.8,53.4,152.8,53.4,152,53.4L152,53.4z M173.7,48
			c0-0.7-0.7-1.2-1.2-1.9c-0.7,0.9-1.8,1.9-2.5,2.7c0,0.1,0.2,0.2,0.2,0.2c0.2-0.2,0-0.8,0.6-0.7c0.6,0.2,1.1,0.1,1.7,0.2
			c0.4,0.2,0.4,0.6,0.7,0.7c0.1,0.1,0,0.2-0.1,0.4c0.1,0.1,0.1,0.1,0.1,0.2c0.1-0.1,0.4-0.4,0.7-0.2c0.4,0,0.4,0.5,0.7,0.5
			c0.1,0.1-0.1,0.4-0.2,0.4c0.1,0.4-0.3,0.5-0.1,0.7c0.1,0,0.4,0,0.4-0.1c0.6-0.5,0.1-1.1,0-1.6c-0.2-0.5-0.8-0.6-1.2-0.9
			C173.5,48.3,173.6,48,173.7,48L173.7,48z M175.8,55.6c-0.5,1.6-1.2,3.1-2.3,4.4h-0.1c0.4,0.2,0.5,0.6,0.8,0.7v-0.2
			c0.1,0,0.1-0.1,0.2-0.1c0.6,0.2,0.7,1.1,0.7,1.5c1.7-1.8,2.7-3.9,3.3-6.1c0.2-0.7,0.1-1.6,0.4-2.4c-0.8,0-1.8,0.1-2.6,0
			c0.1,0.4-0.1,0.6-0.1,0.9c-0.4,0.6,0.5,0.7,0.2,1.3C176.2,55.7,176,55.7,175.8,55.6z M169,59.1c0.6,0.2,1.2,0.2,1.5,0.6
			c0.5,0,1.1,0.1,1.4-0.2c0-0.4,0.2-0.6,0.4-0.8c0.3,0,0.2,0.5,0.3,0.6c0.8-1.1,1.6-2.1,1.9-3.5c-0.5,0-0.7,0.2-1.2,0.1
			c-0.5-0.4-0.4,0.4-0.8,0.2c-0.1,0-0.2-0.2-0.2-0.4c0,0.4-0.4,0.7-0.6,0.9c-0.7-0.2-0.6,0.8-1.3,0.6c0.1,0.4,0.5,0,0.6,0
			c0.1-0.1,0.1-0.2,0.1-0.2c0.1-0.4,0.5-0.5,0.7-0.4c0.1,0.2,0.2,0.6,0.2,0.9c-0.2,0.1-0.2,0.4-0.1,0.6c-0.2,0.4-0.1,1.2-0.8,1.1
			c-0.7-0.2-1.5-0.5-2.4-0.5v0.4L169,59.1z M174.4,62.5c-0.2,0.1-0.5,0-0.6-0.1c0-0.7-0.8-1.1-1.2-1.6c-1.3,0.8,0.6,0.9,0.6,1.6
			c-0.2,0.4-0.8,0.7-0.5,1.2c0.1,0.1-0.1,0.2-0.1,0.4L174.4,62.5L174.4,62.5z M155.5,43.9c-2.1,2.4-3.3,5.3-3.5,8.6h2.6l-0.1-0.1
			c0.1-2.6,1.1-4.9,2.8-6.7c-0.7-0.6-1.3-1.2-1.9-1.9v0.1H155.5z M169.7,56.6c0-0.2,0-0.4-0.2-0.5c-0.2,0-0.2-0.4-0.5-0.4
			c-0.4,0.5,0.3,0.5,0.3,0.9C169.6,56.6,169.7,56.6,169.7,56.6L169.7,56.6z M166.4,59.3c0,0.6,0.7,0.1,0.8,0.5
			c0.2,0,0.2-0.2,0.4-0.5c0.5-0.1,1.1-0.4,1.3-0.8c0.1-0.1,0.1-0.5,0-0.6c-0.2,0.1-0.4,0.1-0.5,0.4c-0.2,0.2-0.5,0-0.7-0.1
			c0.1,0.1,0.2,0.2,0,0.4c-0.2,0.2-0.5-0.1-0.6-0.1c-0.1,0.7-0.4-0.2-0.7,0c-0.1-0.5-0.5,0.1-0.7,0c-0.2,0.1-0.2,0.6-0.6,0.6
			c-0.1,0.2-0.3,0.1-0.5,0.4c0.2,0.2,0.5,0.1,0.6,0.1C165.7,59.2,166,59.4,166.4,59.3L166.4,59.3z M166.4,49.7h0.2
			c0.5-0.6,0.8,0.7,1.3,0.1c0.1-0.7,1.1-0.6,1.3-1.3c-0.1,0.1-0.2,0-0.4-0.1c0-0.2,0.4-0.4,0.5-0.6c-1.1-0.7-2.2-1.1-3.5-1.3
			l0.1,1.8l0.7,0.2c0.2-0.4,0.6-0.5,0.8-0.7c0.2-0.1,0.2,0.1,0.3,0.2C167.8,49,166.9,49.3,166.4,49.7L166.4,49.7z M164.9,67.1
			L164.9,67.1c-3.5,0-6.8-1.4-9.3-3.8l-1.9,1.9c3.2,2.8,7,4.4,11.2,4.6l-0.1-0.2C164.7,68.8,164.6,67.8,164.9,67.1L164.9,67.1z
			 M173.6,53.2l0.5,0.5c0,0.6,0.8,0.7,0.8,1.4c0.1-0.6,0.1-1.2,0.4-1.8C174.7,53.3,174.1,53.4,173.6,53.2L173.6,53.2z M175.5,43.1
			c0.2,0,0.1,0.2,0.4,0.4c0.7,0.5,1.1,1.3,1.6,1.8c0.2,0.6,0.8,0.9,0.8,1.6c0.8,1.6,1.3,3.7,1.4,5.5c0.8-0.1,1.9-0.1,2.7-0.1
			l-0.1-0.1c-0.1-4.4-1.9-8-4.7-11.1l-1.8,1.9L175.5,43.1L175.5,43.1z M166.6,37.9l1.2-0.6c0.5,0.1,1.2,0.1,1.3,0.6
			c-0.6,0.7-1.5,0.1-2.2,0.5c-0.2,0-0.5-0.2-0.7-0.4C166,37.7,166.4,37.9,166.6,37.9L166.6,37.9z M173.4,39.5c0.2,0.1,0.7,0,0.8,0.2
			l0.1,0.5c-0.5,0.4-0.5-0.5-0.9-0.5C173.2,39.8,173.1,39.5,173.4,39.5L173.4,39.5z M165.9,38c0.2,0.1,0.2,0.4,0.1,0.6
			c1.2-0.1,2.4,0.2,3.4,0.6c1.2,0.1,2.1,1.5,3.3,0.8c0.4,0.4,0.8,0,1.1,0.6c0.5,0.1,0.7,0.5,0.9,0.8c0,0.4,0.4,0.6,0.5,0.8
			c0.4-0.7,0.9-1.3,1.6-1.6c-2.4-2.2-5.3-3.8-8.5-4.4c-0.8-0.2-1.9-0.1-2.7-0.4c0.1,0.7,0.1,1.6,0,2.4
			C165.7,38.1,165.8,38.1,165.9,38L165.9,38z M163.9,59.9c-0.2,0-0.3,0.1-0.6,0.1c-1.1-0.4-2.1-0.8-2.8-1.8
			c-0.6,0.6-1.2,1.3-1.8,1.8h0.1c1.4,1.3,3.3,2.1,5.1,2.5c-0.6-0.1-0.8-0.7-1.2-1.2c-0.1-0.4,0.5-0.5,0.4-0.8
			C163.1,60.1,163.5,60,163.9,59.9L163.9,59.9z M158,46.3c-0.6,0.7-1.1,1.4-1.5,2.2c-0.6,1.2-0.8,2.6-1.1,3.9h1.1
			c-0.2-0.2-0.1-0.5-0.1-0.8c0.2-0.6,0.4-1.5,1.2-1.4c0.3-0.1,0-0.4,0.2-0.6c0.6-0.1,0.7-0.6,1.2-0.8c0.5,0,0.6-0.7,0.9-0.7
			C159.2,47.5,158.7,46.8,158,46.3L158,46.3z M179.7,53.3L179.7,53.3c-0.2,3.5-1.6,6.7-3.9,9.1l1.9,1.9c2.2-2.6,3.8-5.4,4.2-8.6
			c0.2-0.8,0.1-1.8,0.4-2.5C181.5,53.4,180.6,53.3,179.7,53.3L179.7,53.3z M175.1,63.1c-0.4,0.5-0.8,0.9-1.4,1.3
			c-1.8,0.6-1.9,2.5-3.5,3.2c-0.7,0.2-1.1-0.6-1.7-0.7c-0.9,0.1-1.9,0.4-2.7,0.2v2.8l0.1-0.1c4.2-0.2,8.1-1.9,11.2-4.7
			C176.4,64.4,175.6,63.7,175.1,63.1L175.1,63.1z M165.8,66.3c0.6-0.2,1.4-0.2,2-0.4c-0.3-0.4-0.8-0.4-0.9-0.8
			c-0.2-0.4,0.1-0.7,0.1-0.9c-0.4-0.2-0.9,0-1.3-0.4l0.1,0.2L165.8,66.3L165.8,66.3z M165.8,45.6c1.5,0.1,3.2,0.7,4.4,1.8
			c0.6-0.6,1.2-1.4,1.9-1.8c-1.9-1.4-3.9-2.4-6.3-2.5V45.6z"/>
	</g>
</g>
</svg>
